<?xml version="1.0" encoding="utf-8"?>
<!-- Generator: Adobe Illustrator 27.3.1, SVG Export Plug-In . SVG Version: 6.00 Build 0)  -->
<svg version="1.1" id="Layer_1" xmlns="http://www.w3.org/2000/svg" xmlns:xlink="http://www.w3.org/1999/xlink" x="0px" y="0px"
	 viewBox="0 0 1024 1024" style="enable-background:new 0 0 1024 1024;" xml:space="preserve">
<g>
	<g>
		<g>
			<g>
				<g>
					<defs>
						<ellipse id="SVGID_1_" cx="485.22" cy="524.49" rx="401.86" ry="391.98"/>
					</defs>
					<clipPath id="SVGID_00000157273602813914173680000010481884544574139567_">
						<use xlink:href="#SVGID_1_"  style="overflow:visible;"/>
					</clipPath>
					<g style="clip-path:url(#SVGID_00000157273602813914173680000010481884544574139567_);">
						<path style="fill:#EAE0D4;" d="M54.4-98.79l1132.43,0.01l-0.01,87.07l0.01,49.59l0.08,438.33l0.05,142.16l0.01,45.29
							c0,8.01,0.28,18.06-0.17,25.96c0.04,5.35-0.19,15.3,0.22,20.27l-0.22,1.39l0.07,235.24c-19.45,0.71-40.32,0.37-59.9,0.37
							l-98.64-0.02l-292.21,0.03H282.66c-75.54,0-152.65,0.8-228.06-0.09l-0.04-53.7c0.12-12.98,0.13-25.97,0.02-38.95
							c0.64-58.35,0.04-117.53,0.06-175.96c-0.69-22.36-0.03-48.49-0.03-71.11l-0.02-139.32V38l-0.03-49.56
							C54.57-40.34,54.95-70.08,54.4-98.79z"/>
						<path style="fill:#E5D6C9;" d="M572.25,479.36c15.1,1.39,37.45-0.47,53.21-0.19c6.71,0.12,15.52-0.65,22.17,0.19
							c22.35,0.36,45.88-0.64,67.95,0.12l4.58-0.08c5.55-0.01,12.98-0.24,18.38,0.05l23.74-0.03c2.5,0.09,5.28,0.12,7.75,0.32
							c27.4,3.4,18.76,25.13,21.76,44.4l4.36-0.44c2.1,0.73,2.89,0.78,4.14,2.6c1.19,4.74-1.56,9.4-3.52,14.14
							c3.25-0.14,6.25-0.26,9.49-0.61c8.5,0.17,12.2,0.59,20.29,3.07c15.88,8.73,11.31,19.87,12.54,34.95
							c0.41,4.98-0.89,36.17,0.59,38.66c2.29-9.62,4.12-13.26,12.22-18.86c17.6-4.36,32.22,3.51,48.36,10.1l5.32-2.24
							c2.12-1.25,6.23-2.95,8.61-4.02c5.42-1.5,7.75-1.66,13.1-1.26l5.22,1.19c9.24,4.21,14,9.13,14.2,19.92
							c0.25,13.4-4.05,26.47-6.96,39.47l-6.55,30.2c1.86,0.53,1.93,0.73,3.77,0.39c3.18-2.44,2.51-8.19,3.3-13.06l0.44,4.89
							l1.48,0.34l0.04-1.88c2.33-1.12,13.14,2.54,16.07,3.57l46,16.03c20.79,7.47,18.07,8.72,40.68,7.98
							c35.01-1.15,70.66,0.08,105.73,0.01c12.2-0.02,23.65-0.78,35.48-0.62c-0.28-3.03-1.01-17.17,0.6-19.03
							c0.04,5.35-0.19,15.3,0.22,20.27l-0.22,1.39l0.07,235.24c-19.45,0.71-40.32,0.37-59.9,0.37l-98.64-0.02l-292.21,0.03H282.65
							c-75.54,0-152.65,0.8-228.06-0.09l-0.04-53.7c0.12-12.98,0.13-25.97,0.02-38.95c0.64-58.35,0.04-117.53,0.06-175.96
							l57.05,0.07c4.56,0.01,19.69-0.53,23.53,0.36l0.73-1.22c1.35,6.9,2.32,24.16,5.21,28.46c7.84,4.77,23.9,2.78,32.85,2.97
							c12.3,0.26,8.57-10.14,10.93-18.46c1.27,3.48-0.98,13.2-1.95,17.04c7.81-0.05,15.94,1.02,23.55-0.98
							c3.78-0.99,30.42-9.45,31.32-11.77c0.49-1.26,1.07-3.56,0.4-4.72c-5.06,0.06-18.6-1.27-11.52-9.64l0.61-0.8
							c1.89-0.76,29.64-0.36,34.14-0.42c0.49-8.02,0.1-20.04,0.16-28.37l0.07-63.65c-0.04-5.66-1.05-33.6,1.35-36.96
							c2.12-1.2,3.88-0.75,6.26-1.16l-2.37-7.27c-1.65-6.21-7.13-16.13-2.57-20.86c2.58-1.12,4.36-0.63,7.18-0.35
							c0.47-0.17,0.94-0.35,1.41-0.52c2.18-10-2.67-25.1,5.45-33.35c6.29-6.4,15.69-6.39,23.86-6.53
							c46.29-0.8,93.58-0.53,139.92-0.62l16,0.01l36.07-0.09c14.41-0.02,27.22-2.14,39.01,7.57
							C542.45,476.63,559.28,479.27,572.25,479.36z"/>
						<path style="fill:#D9C9BD;" d="M572.25,479.36c15.1,1.39,37.45-0.47,53.21-0.19c6.71,0.12,15.52-0.65,22.17,0.19
							c22.35,0.36,45.88-0.64,67.95,0.12l4.58-0.08c5.55-0.01,12.98-0.24,18.38,0.05l23.74-0.03c2.5,0.09,5.28,0.12,7.75,0.32
							c27.4,3.4,18.76,25.13,21.76,44.4l4.36-0.44c2.1,0.73,2.89,0.78,4.14,2.6c1.19,4.74-1.56,9.4-3.52,14.14
							c3.25-0.14,6.25-0.26,9.49-0.61c8.5,0.17,12.2,0.59,20.29,3.07c15.88,8.73,11.31,19.87,12.54,34.95
							c0.41,4.98-0.89,36.17,0.59,38.66c-0.06,3.88-0.03,8.4-0.29,12.23c3.75,10.49,9.51,14.59,12.76,23.69
							c2.1,5.86,0.72,19.73,1.51,26.67c-3.98-0.04-20.09,1.15-21.93,0.21c-10.86,0.06-21.71-0.01-32.57-0.2l-5.12,0.02
							c-175.87,0.94-351.74,0.93-527.61-0.02h-4.97c0.49-8.02,0.1-20.04,0.16-28.37l0.07-63.65c-0.04-5.66-1.05-33.6,1.35-36.96
							c2.12-1.2,3.88-0.75,6.26-1.16l-2.37-7.27c-1.65-6.21-7.13-16.13-2.57-20.86c2.58-1.12,4.36-0.63,7.18-0.35
							c0.47-0.17,0.94-0.35,1.41-0.52c2.18-10-2.67-25.1,5.45-33.35c6.29-6.4,15.69-6.39,23.86-6.53
							c46.29-0.8,93.58-0.53,139.92-0.62l16,0.01l36.07-0.09c14.41-0.02,27.22-2.14,39.01,7.57
							C542.45,476.63,559.28,479.27,572.25,479.36z"/>
						<path style="fill:#D9C9BD;" d="M806.26,539.82c8.5,0.17,12.2,0.59,20.29,3.07c15.88,8.73,11.31,19.87,12.54,34.95
							c0.41,4.98-0.89,36.17,0.59,38.66c-0.06,3.88-0.03,8.4-0.29,12.23c3.75,10.49,9.51,14.59,12.76,23.69
							c2.1,5.86,0.72,19.73,1.51,26.67c-3.98-0.04-20.09,1.15-21.93,0.21c-10.86,0.06-21.71-0.01-32.57-0.2l-5.12,0.02
							c-175.87,0.94-351.74,0.93-527.61-0.02h-4.97c0.49-8.02,0.1-20.04,0.16-28.37l0.07-63.65c-0.04-5.66-1.05-33.6,1.35-36.96
							c2.12-1.2,3.88-0.75,6.26-1.16c4.81,13.23,6.14,29.1,14.42,39.09c-2.19,4.99-2.67,5.93-1.19,11.18
							c-4.95,0.34-12.19,5.52-15.28,9.24c1.36,1.38,2.98,1.06,5.32,1.08l178.48,0.18c25.21,0.09,54.43-0.41,79.37,0.61l1.12,0.03
							c18.41-0.64,38.88-0.35,57.42-0.43l143.85,0.27c7.62-0.01,56.21,0.37,60.67-1.12c-3.23-6.61-8.39-6.6-13.53-11.03
							c-0.34-4.66-0.66-5.4-2.11-9.84c8.52-9.78,11.75-28.49,16.34-41.56c0.84-2.25,1.61-4.04,2.59-6.23
							C800.02,540.28,803.02,540.17,806.26,539.82z"/>
						<path style="fill:#D9C9BD;" d="M267.25,608.47c1.36,1.38,2.98,1.06,5.32,1.08l178.48,0.18c25.21,0.09,54.43-0.41,79.37,0.61
							c-2.15,10.56,1.98,28.97-1.58,38.94c-2.1,5.88-33.07,4.25-39.53,4.25l-51.95-0.03h-97.59c-20.22-0.02-40.46-0.15-60.67-0.74
							c-3.05-0.27-8.08-0.58-10.46-2.64c-5.61-4.86-4.2-16.09-4.2-22.73C264.43,621.92,264.29,612.62,267.25,608.47z"/>
						<path style="fill:#D9C9BD;" d="M793.47,609.09c3.56,6.05,3.04,28.15,1.22,35.6c-0.73,2.96-2.41,4.65-4.65,6.64
							c-8.96,3.06-45.38,2.16-57.01,2.17l-70.7,0.01l-72.47,0.01c-14.35,0-28.76,0.17-43.09-0.31c-3.85-0.13-13.24-0.76-14.11-5.41
							c-1.67-8.97-0.43-19.15-0.75-28.31c-0.11-2.97,0.15-6.24-0.37-9.12c18.41-0.64,38.88-0.35,57.42-0.43l143.85,0.27
							C740.42,610.2,789.01,610.58,793.47,609.09z"/>
						<path style="fill:#D9C9BD;" d="M806.26,539.82c8.5,0.17,12.2,0.59,20.29,3.07c15.88,8.73,11.31,19.87,12.54,34.95
							c0.41,4.98-0.89,36.17,0.59,38.66c-0.06,3.88-0.03,8.4-0.29,12.23c3.75,10.49,9.51,14.59,12.76,23.69
							c2.1,5.86,0.72,19.73,1.51,26.67c-3.98-0.04-20.09,1.15-21.93,0.21c-10.86,0.06-21.71-0.01-32.57-0.2
							c-1.09-6.4-0.73-21.76-0.92-29.06c-0.73-27.23,0.69-54.73-0.28-81.98c-0.2-5.61,0.62-14.66-0.01-19.18
							c-1.03-1.52-2.02-1.62-3.78-2.21c0.84-2.25,1.61-4.04,2.59-6.23C800.02,540.28,803.02,540.17,806.26,539.82z"/>
						<path style="fill:#E5D6C9;" d="M839.4,628.73c3.75,10.49,9.51,14.59,12.76,23.69c2.1,5.86,0.72,19.73,1.51,26.67
							c-3.98-0.04-20.09,1.15-21.93,0.21c2-1.71,3.45-1.84,6.07-2.55C839.05,667.84,837.84,632,839.4,628.73z"/>
						<path style="fill:#C9B5A8;" d="M794.18,546.65c1.77,0.6,2.75,0.7,3.78,2.21c0.63,4.52-0.19,13.57,0.01,19.18
							c0.97,27.25-0.45,54.75,0.28,81.98c0.2,7.3-0.17,22.67,0.92,29.06l-5.12,0.02c0.23-7.75,0.31-15.5,0.26-23.25L432,657.31
							c-54-0.21-112.76,0.74-166.54-1.92c-0.09,4.3-1.03,20.55,0.98,23.69h-4.97c0.49-8.02,0.1-20.04,0.16-28.37l0.07-63.65
							c-0.04-5.66-1.05-33.6,1.35-36.96c2.12-1.2,3.88-0.75,6.26-1.16c4.81,13.23,6.14,29.1,14.42,39.09
							c-2.19,4.99-2.67,5.93-1.19,11.18c-4.95,0.34-12.19,5.52-15.28,9.24c-2.96,4.15-2.82,13.45-2.82,18.94
							c0,6.64-1.41,17.87,4.2,22.73c2.38,2.06,7.4,2.37,10.46,2.64c20.21,0.6,40.45,0.72,60.67,0.74h97.59l51.95,0.03
							c6.46,0,37.43,1.62,39.53-4.25c3.56-9.98-0.57-28.38,1.58-38.94l1.12,0.03c0.52,2.88,0.26,6.15,0.37,9.12
							c0.33,9.16-0.92,19.34,0.75,28.31c0.87,4.65,10.26,5.28,14.11,5.41c14.33,0.49,28.74,0.31,43.09,0.31l72.47-0.01l70.7-0.01
							c11.63-0.01,48.05,0.89,57.01-2.17c2.24-1.99,3.92-3.68,4.65-6.64c1.83-7.45,2.34-29.54-1.22-35.6
							c-3.23-6.61-8.39-6.6-13.53-11.03c-0.34-4.66-0.66-5.4-2.11-9.84C786.35,578.44,789.58,559.73,794.18,546.65z"/>
						<path style="fill:#E5D6C9;" d="M532.53,600.15c18.25-10.21,106.04-11.65,130.43-12.16c8.76-0.18,28.22,0.64,36.51-0.48
							l0.47,0.44c1.95,2.48,2.92,3.69,6.17,3.97c6.63,0.56,13.26,0.3,19.89,1.06c14.89,1.7,29.57,3.9,44.04,7.9
							c4.57,1.26,6.76,0.41,9.89-2.82c5.14,4.43,10.3,4.42,13.53,11.03c-4.46,1.49-53.05,1.11-60.67,1.12l-143.85-0.27
							c-18.54,0.08-39.02-0.22-57.42,0.43l-1.12-0.03c-24.94-1.02-54.16-0.52-79.37-0.61l-178.48-0.18
							c-2.33-0.01-3.95,0.3-5.32-1.08c3.09-3.72,10.33-8.9,15.28-9.24c5.69,2.4,21.57-2.31,29.51-3.29
							c1.67,1.82,3.08,2.42,5.55,2.46c11.1,0.17,21.67-4.48,32.93-5.01c8.05-0.38,15.74-0.58,23.68-1.44
							c1.98-0.21,3.63-1.7,5.12-2.92c10.68-1.4,33.48-1.08,44.63-0.27C454.17,590.96,505.12,588.32,532.53,600.15z"/>
						<path style="fill:#F2EADF;" d="M271.56,520.48c10.1,2.61,29.02,0,39.22-2.47c9.41-2.27,22.19-8.61,26.08,5.07l0.87-1.03
							c0.34,0.01,0.67,0.03,1.01,0.03c4.76,0.07,13.73-4.22,17.56-0.56c3.07,2.94,14.6,35.42,16.05,40.8
							c2.45,9.08,2.94,18.05,6.99,26.69c-1.49,1.22-3.14,2.71-5.12,2.92c-7.94,0.85-15.63,1.06-23.68,1.44
							c-11.26,0.53-21.83,5.19-32.93,5.01c-2.47-0.04-3.88-0.64-5.55-2.46c-7.94,0.98-23.82,5.69-29.51,3.29
							c-1.49-5.25-1-6.2,1.19-11.18c-8.28-9.99-9.61-25.86-14.42-39.09l-2.37-7.27c-1.65-6.21-7.13-16.13-2.57-20.86
							C266.95,519.71,268.73,520.19,271.56,520.48z"/>
						<path style="fill:#719C8D;" d="M271.56,520.48c10.1,2.61,29.02,0,39.22-2.47c9.41-2.27,22.19-8.61,26.08,5.07
							c-6.51,4.15-25.28,4.8-33.01,4.13c-14.86-1.3-9.88,5.03-7.35,16.19c2.8,12.39,7.4,26.1,12.72,37.88
							c1.64,3.81-0.25,8,2.83,14.65c-7.94,0.98-23.82,5.69-29.51,3.29c-1.49-5.25-1-6.2,1.19-11.18
							c-8.28-9.99-9.61-25.86-14.42-39.09l-2.37-7.27c-1.65-6.21-7.13-16.13-2.57-20.86C266.95,519.71,268.73,520.19,271.56,520.48z
							"/>
						<path style="fill:#709B91;" d="M699.95,587.95c0.86-3.35,2.85-6.13,3.79-10.39c1.61-7.27,2.29-14.37,4.7-21.39
							c1.62-5.84,7.5-13.79,9.43-19.06c5.96-16.25,4.45-24.66,25.22-17.7c4.33,1.45,14.12,4.39,18.91,4.98
							c9.55,1.18,20.11,0.5,29.78-0.26l4.36-0.44c2.1,0.73,2.89,0.78,4.14,2.6c1.19,4.74-1.56,9.4-3.52,14.14
							c-0.98,2.19-1.75,3.98-2.59,6.23c-4.6,13.08-7.83,31.78-16.34,41.56c1.44,4.44,1.77,5.18,2.11,9.84
							c-3.13,3.23-5.32,4.09-9.89,2.82c-14.47-4-29.15-6.2-44.04-7.9c-6.63-0.76-13.26-0.5-19.89-1.06
							C702.87,591.64,701.9,590.43,699.95,587.95z"/>
						<path style="fill:#C9B5A8;" d="M532.61,487.18c1.66,3.04,1.08,18.03,1.09,22.17l0.03,35.67c0,7.49,0.49,38.17-0.45,44.33
							c-3.16-2.42-0.68-81.85-1.5-92.37C531.61,494.7,531.95,489.43,532.61,487.18z"/>
						<path style="fill:#D9C9BD;" d="M135.93,677.41c1.35,6.9,2.32,24.16,5.21,28.46c7.84,4.77,23.9,2.78,32.85,2.97
							c12.3,0.26,8.57-10.14,10.93-18.46c1.27,3.48-0.98,13.2-1.95,17.04c7.81-0.05,15.94,1.02,23.55-0.98
							c3.78-0.99,30.42-9.45,31.32-11.77c0.49-1.26,1.07-3.56,0.4-4.72c-5.06,0.06-18.6-1.27-11.52-9.64l0.61-0.8
							c1.89-0.76,29.64-0.36,34.14-0.42h4.97c175.87,0.96,351.74,0.97,527.61,0.02l5.12-0.02c10.86,0.19,21.71,0.26,32.57,0.2
							c1.84,0.94,17.96-0.25,21.93-0.21c0.23,3.85,0.24,5.98,0.05,9.81h-32.56c1.11,6.55,5.61,26.46,2.48,30.99
							c-2.64,1.37-4.38,0.9-6.74-0.97c-7.24,1.54-27.23,0.76-35.91,0.79c-22.17,0.07-44.67,0.33-66.83,0.15
							c2.59,4.2,6.62,10.29,8.21,14.75l-2.03-0.19c-19.87,0.38-40.7,0.1-60.67,0.15H540.91c-15.42-0.52-32.49-0.14-48.01-0.1
							l-94.54,0.29l-57.93,0.04c-2.48,0.02-16.71-0.12-18.18,0.5c-9.08,3.83-21.22,11.84-29.9,17.12
							c-17.41,10.6-36.9,20.8-53.42,32.32c-7.87,3.77-27.49,16.06-35.89,20.96c-30.67,17.96-61.22,36.12-91.64,54.49
							c-10.04,5.97-29.1,17.93-38.8,22.35c21.43,0.55,44.13,0.3,65.66,0.3l107.52-0.01l260.13-0.06
							c2.72-11.98,19.74-93.57,21.33-95.82l0.9,0.22c1.45,3.64-17.22,84.25-19.46,95.4c74.7,1.01,149.87-0.17,224.6,0.28
							c25.81,0.15,52.21-0.42,77.92,0.01l-36-59.39c-2.94-4.82-21.31-33.25-21.03-36.34c3.66,0.75,17.21,25.36,20.23,30.31
							l39.91,65.31c20.4,0.43,41.68,0.07,62.15,0.09c61.24,0.06,122.51-0.09,183.75-0.04c2.52,0,17.43,1.23,20.16,1.39
							c6.45,0.37,46.48-0.6,49.61,0.4c-2.95,0.72-18.12,0.42-22.56,0.42l-52.84-0.03l-150.03,0.01c-28.92,0-60.21-0.55-88.98,0.4
							c11.1,18.78,22.71,38.42,33.53,57.44c0.55,0.97,0.66,1.82,0.43,2.92l-1.1,0.24c-1.91-1.45-32.09-54.27-36.19-60.95
							l-197.42,0.06c-35.28,0-71.63-0.61-106.82,0.04c-3.66,15.42-9.7,43.87-13.59,60.42c-0.35,0.23-0.69,0.46-1.04,0.7l-0.97-0.28
							c-0.54-2.68,11.67-55.03,13-60.95l-296.14,0.08l-93.59,0.01c-14.4,0-29.64-0.25-44.08,0.15c-5.6,0.16-11.51,5.44-17.06,7.8
							c0.12-12.98,0.13-25.97,0.02-38.95c0.64-58.35,0.04-117.53,0.06-175.96l57.05,0.07c4.56,0.01,19.69-0.53,23.53,0.36
							L135.93,677.41z"/>
						<path style="fill:#E5D6C9;" d="M135.93,677.41c1.35,6.9,2.32,24.16,5.21,28.46c7.84,4.77,23.9,2.78,32.85,2.97
							c12.3,0.26,8.57-10.14,10.93-18.46c1.27,3.48-0.98,13.2-1.95,17.04c7.81-0.05,15.94,1.02,23.55-0.98
							c3.78-0.99,30.42-9.45,31.32-11.77c0.49-1.26,1.07-3.56,0.4-4.72c-5.06,0.06-18.6-1.27-11.52-9.64
							c-0.31,13.26,6.98,6.06,13.45,9.06c0.38-1.06,0.2-0.59,1.35-1.45c3.48-0.33,10.34-0.78,13.31,1.09
							c-2.1,6.16-4.43,12.68-6.37,18.85c-0.59,1.68-1.3,3.6-1.82,5.28c1.37,1.99,1.39,2.1,2.26,4.38c4.91,3.31,48.85,0.61,49.66,4.4
							c-6.41,6.13-18.33,9.84-26.23,14.27C250.51,748.44,61.86,853.84,55.95,854.35c-0.62,0.05-0.85-0.05-1.39-0.19
							c0.64-58.35,0.04-117.53,0.06-175.96l57.05,0.07c4.56,0.01,19.69-0.53,23.53,0.36L135.93,677.41z"/>
						<path style="fill:#916A5C;" d="M240.17,689.37c0.38-1.06,0.2-0.59,1.35-1.45c3.48-0.33,10.34-0.78,13.31,1.09
							c-2.1,6.16-4.43,12.68-6.37,18.85c-0.59,1.68-1.3,3.6-1.82,5.28l-0.83,2.2c-1.7,4.59-4.75,7.44-9.61,3.97
							C234.89,716.33,239.31,694.19,240.17,689.37z"/>
						<path style="fill:#D9C9BD;" d="M54.92,711.05c4.3-0.32,6.7-0.45,11-0.25l0.75,0.87C64.2,712.97,57.56,712.23,54.92,711.05z"/>
						<path style="fill:#997365;" d="M799.17,679.1c10.86,0.19,21.71,0.26,32.57,0.2c1.84,0.94,17.96-0.25,21.93-0.21
							c0.23,3.85,0.24,5.98,0.05,9.81h-32.56c1.11,6.55,5.61,26.46,2.48,30.99c-2.64,1.37-4.38,0.9-6.74-0.97
							c-1.36-3.78-2.67-7.59-3.91-11.41c-2.15-6.3-4.45-12.55-6.89-18.74c-4.04-0.01-20.28-0.34-23.11,0.49
							c-0.4-1.19-0.1-0.63-1.25-1.52c-3.33-0.43-7.17-0.21-10.33,0.99c-7.05,0.4-18.76,0.04-26.26,0.04l-52.68,0.1l-139.41-0.03
							l-6.57,0.02l-249.62-0.05l-1.7,4.64c-1.52,4.61-3.09,9.76-4.8,14.25c-2.66,2.32-4.74,1.66-8.1,0.89
							c-7.33-2.09-30,1.75-33.81-0.73c1.94-6.17,4.27-12.69,6.37-18.85c-2.96-1.86-9.83-1.42-13.31-1.09
							c-1.15,0.87-0.98,0.4-1.35,1.45c-6.48-2.99-13.76,4.2-13.45-9.06l0.61-0.8c1.89-0.76,29.64-0.36,34.14-0.42h4.97
							c175.87,0.96,351.74,0.97,527.61,0.02L799.17,679.1z"/>
						<path style="fill:#E5D6C9;" d="M254.83,689c1.95-1.28,25.77-0.64,29.75-0.69c-0.71,6.54-1.34,13.82-2.31,20.27
							c-7.33-2.09-30,1.75-33.81-0.73C250.41,701.68,252.74,695.16,254.83,689z"/>
						<path style="fill:#916A5C;" d="M295.17,693.44c-3.2,0.06-8.65-0.05-7.87-4.48c2.58-2.38,7.06-2.38,9.57-0.16L295.17,693.44z"
							/>
						<path style="fill:#E5D6C9;" d="M296.87,688.8l249.62,0.05c0.98,1.32,1.14,1.21,0.67,3.36c-1.05,4.76-2.39,9.57-3.53,14.34
							l-171.66,0.24c-25.05,0.15-57.19-0.76-81.6,0.91c1.71-4.49,3.28-9.65,4.8-14.25L296.87,688.8z"/>
						<path style="fill:#E5D6C9;" d="M553.06,688.83l139.41,0.03c2.15,4.53,7.87,13.32,10.7,17.77c-15.57-0.8-37.62-0.13-53.56-0.09
							l-103.16,0.03c1.25-5.02,1.94-11.14,3.91-16.03C550.91,689.15,551.59,689.3,553.06,688.83z"/>
						<path style="fill:#E5D6C9;" d="M543.54,719.8c55.9,0.27,111.8,0.17,167.7-0.28c2.22,3.85,6.49,11.75,9.09,14.9
							c-19.87,0.38-40.7,0.1-60.67,0.15H540.91C541.68,729.62,542.55,724.7,543.54,719.8z"/>
						<path style="fill:#E5D6C9;" d="M782.99,689.25c2.83-0.83,19.08-0.5,23.11-0.49c2.44,6.19,4.74,12.44,6.89,18.74
							c-7.79-1.07-24.87,1.08-28.45,0.33C784.55,701.8,783.69,695.28,782.99,689.25z"/>
						
							<linearGradient id="SVGID_00000079480907038515424160000000004136880565311888_" gradientUnits="userSpaceOnUse" x1="775.2108" y1="6070.3467" x2="784.0824" y2="6088.1274" gradientTransform="matrix(1 0 0 1 0 -5382.6489)">
							<stop  offset="0" style="stop-color:#825E53"/>
							<stop  offset="1" style="stop-color:#987667"/>
						</linearGradient>
						<path style="fill:url(#SVGID_00000079480907038515424160000000004136880565311888_);" d="M771.41,688.72
							c3.16-1.2,7-1.42,10.33-0.99c1.15,0.89,0.85,0.33,1.25,1.52c0.7,6.03,1.56,12.55,1.55,18.59c-3.47-0.04-5.55,0.93-7.6-2.51
							C774.33,700.94,772.89,693.63,771.41,688.72z"/>
						<path style="fill:#F2EADF;" d="M722.36,734.61c49-1.01,162.89-0.31,216.18,0.65c4.13,0.07,81.43,45.24,89.04,50.99
							l-512.45,0.05l-174.58,0.13c-30.98,0.03-62.05,0.14-93.03-0.08c-2.91-0.02-6.11-0.02-8.58-1.59
							c16.52-11.52,36.01-21.72,53.42-32.32c8.68-5.28,20.82-13.29,29.9-17.12c1.47-0.62,15.7-0.48,18.18-0.5l57.93-0.04l94.54-0.29
							c15.52-0.04,32.59-0.42,48.01,0.1h118.75c19.97-0.04,40.79,0.23,60.67-0.15L722.36,734.61z"/>
						<path style="fill:#997365;" d="M851.92,597.63c17.6-4.36,32.22,3.51,48.36,10.1l5.32-2.24c2.12-1.25,6.23-2.95,8.61-4.02
							c5.42-1.5,7.75-1.66,13.1-1.26l5.22,1.19c9.24,4.21,14,9.13,14.2,19.92c0.25,13.4-4.05,26.47-6.96,39.47l-6.55,30.2
							c-1.26,4.27-2.12,7.93-4.36,11.79c-10.37,7.22-41.88,7.56-55.27,7.51c-19.23-0.37-20.15-4.27-19.86-21.4
							c0.19-3.83,0.19-5.96-0.05-9.81c-0.79-6.95,0.58-20.81-1.51-26.67c-3.25-9.1-9.01-13.21-12.76-23.69
							c0.26-3.83,0.23-8.35,0.29-12.23C841.99,606.88,843.81,603.23,851.92,597.63z"/>
						<path style="fill:#997365;" d="M849.4,608.82c13.38-0.96,23.06-0.24,35.04,6.49c9.1,15.58,8.51,44.21,10.52,62.3
							c0.75,6.72,1.67,18.41,1.26,24.76c-4.38-3.67-5.61-73.53-13.04-83.07C875.71,609.69,857.93,612.9,849.4,608.82z"/>
						<path style="fill:#719C8D;" d="M901.3,613.15c7.17,3.39,12.3,38.22,12.14,46.66c-1.1-1.23-2.38-8.17-2.64-10.38
							C909.3,637.16,903.61,624.89,901.3,613.15z"/>
						<path style="fill:#D9C9BD;" d="M873.58,710.3c13.39,0.05,44.9-0.29,55.27-7.51c3.19,2.49,4.76,0.05,6.16,4.63
							c-4.22,7.32-45.29,4.96-54.35,5.23c4.75,2.09,32.04,17.24,33.13,21.46l-0.14-0.49l-0.26,0.78
							C905.84,731.2,880.75,711.77,873.58,710.3z"/>
						<path style="fill:#EAE0D4;" d="M196.76,90c34.87-0.78,69.75-0.8,104.61-0.08l0.55,7.85h383.9l0.14,14.62
							c0.51,2.88-0.11,50.37-0.65,51.84c0.43,3.45,0.1,8.55-0.02,12.19c-0.09,52.35-0.67,104.69-1.73,157.02
							c-0.19,9.14,0.48,39.84-0.85,46.86c-0.06,3.19-0.27,9.11,0.01,12.21c0.7,10.93,0.36,26.3,0.31,37.41
							c-0.07,16,0.17,32.9-0.17,48.86c-10.8,0.06-24.99-0.32-35.41,0.18l0.17,0.4c-6.65-0.83-15.47-0.07-22.17-0.19
							c-15.76-0.28-38.11,1.58-53.21,0.19c-12.97-0.09-29.81-2.72-38.98,7.6c-11.79-9.72-24.59-7.59-39.01-7.57l-36.07,0.09
							l-16-0.01c-46.34,0.09-93.63-0.19-139.92,0.62c-8.17,0.14-17.57,0.13-23.86,6.53c-8.11,8.25-3.27,23.35-5.45,33.35
							c-0.47,0.17-0.94,0.35-1.41,0.52c-2.82-0.29-4.61-0.77-7.18,0.35c-4.56,4.73,0.92,14.65,2.57,20.86l2.37,7.27
							c-2.38,0.41-4.15-0.04-6.26,1.16c-2.4,3.36-1.38,31.3-1.35,36.96l-0.07,63.65c-0.05,8.33,0.33,20.35-0.16,28.37
							c-4.5,0.05-32.25-0.34-34.14,0.42l-0.61,0.8c-7.08,8.36,6.46,9.7,11.52,9.64c0.66,1.16,0.08,3.46-0.4,4.72
							c-0.9,2.32-27.53,10.78-31.32,11.77c-7.61,2-15.75,0.93-23.55,0.98c0.97-3.83,3.22-13.56,1.95-17.04
							c-2.36,8.32,1.37,18.72-10.93,18.46c-8.95-0.19-25.01,1.8-32.85-2.97c-2.89-4.3-3.87-21.55-5.21-28.46
							c-1.24-10.68-3.21-22.37-4.84-33.03l-0.7-4.86c-2.59,0.01-2.85-0.16-4.38-1.58c-1.52-3.76-0.56-7.07,0.03-11.16
							c7.07-0.76,15.41-0.58,22.61-0.61l2.22,0.56l1.68-0.33l2.3-0.29l1.07,0.07l2.15,0.41l1.21-0.12l2.29,0.03
							c0.36-10.05,1.88-30.7,4.18-39.76c-1.27-0.65-1.49-0.81-2.63-1.67c-0.97-3.22-0.39-6.81-0.82-10.91
							c-0.19-11.08,4.18-35.1,6.72-46.09c-2.1-4.77-4.92-5.1-5.9-13.16c-2.28-18.81,6.37-31.75,17.11-45.77l4.83-5.32
							c6.99-6.24,16.35-13.62,24.72-17.78l0.71-0.43c-0.97-7.26-0.53-27.12-0.5-35.12c0.28-23.49,0.41-46.98,0.38-70.47l0.13-249.41
							C206.31,90.56,200.79,90.72,196.76,90z"/>
						<path style="fill:#FFFFFE;" d="M458.39,392.39l156.26-0.01c0.04,28.14,0.85,58.67,0.48,86.48c-5.98,0.02-39.3-0.56-42.88,0.49
							c-12.97-0.09-29.81-2.72-38.98,7.6c-11.79-9.72-24.59-7.59-39.01-7.57l-36.07,0.09C458.23,451.04,457.77,420.66,458.39,392.39
							z"/>
						<path style="fill:#FFFFFE;" d="M303.39,392.61c45.78-0.68,92.59-0.2,138.45-0.22l0.37,87.07
							c-46.34,0.09-93.63-0.19-139.92,0.62C302.08,451.37,303.29,421.5,303.39,392.61z"/>
						<path style="fill:#F2EADF;" d="M232.43,90.7l22.81-0.07l-2.94,380.7c-0.11,8.63-0.03,67.32-1.31,70.8
							c-8.35,0.21-16.01,0.31-23.35,4.85c-1.19-7.65,0.29-27.86,0.47-36.16l1.12-79.18l2.65-190.95
							C232.56,191.9,233.55,139.34,232.43,90.7z"/>
						<path style="fill:#FFFFFE;" d="M685.3,176.42c-0.09,52.35-0.67,104.69-1.73,157.02c-0.19,9.14,0.48,39.84-0.85,46.86
							l-35.82-0.01l0.01-203.83L685.3,176.42z"/>
						<path style="fill:#D9C9BD;" d="M266.94,541.68l2.37,7.27c-2.38,0.41-4.15-0.04-6.26,1.16c-2.4,3.36-1.38,31.3-1.35,36.96
							l-0.07,63.65c-0.05,8.33,0.33,20.35-0.16,28.37c-4.5,0.05-32.25-0.34-34.14,0.42c-1.79-3.08-6.5-2.76-6.61-8.03
							c-0.75-35.98-0.38-72.05-0.29-108.04c0.02-8.87,0.75-10.37,7.21-16.46c7.34-4.55,14.99-4.65,23.35-4.85
							c4.78-0.19,10.26,0.33,15.1,0.67L266.94,541.68z"/>
						<path style="fill:#BB816E;" d="M154.86,626.11l1.07,0.07l2.15,0.41l1.21-0.12l2.29,0.03l1.79,0.3l3-0.17
							c5.17,0.07,24.45-0.63,27.83,0.98c1.6,3.12,2.79,12.08-3.51,11.84l-0.86,6.5c-1.16,11.12-3.17,24.33-4.01,35.17
							c-0.3,2.45-0.97,6.95-0.92,9.26c-2.36,8.32,1.37,18.72-10.93,18.46c-8.95-0.19-25.01,1.8-32.85-2.97
							c-2.89-4.3-3.87-21.55-5.21-28.46c-1.24-10.68-3.21-22.37-4.84-33.03l-0.7-4.86c-2.59,0.01-2.85-0.16-4.38-1.58
							c-1.52-3.76-0.56-7.07,0.03-11.16c7.07-0.76,15.41-0.58,22.61-0.61l2.22,0.56l1.68-0.33L154.86,626.11z"/>
						<path style="fill:#BB816E;" d="M154.86,626.11l1.07,0.07l2.15,0.41l1.21-0.12l2.29,0.03l1.79,0.3l3-0.17
							c5.17,0.07,24.45-0.63,27.83,0.98c1.6,3.12,2.79,12.08-3.51,11.84l-0.86,6.5c-20.1-0.2-38.61-0.82-58.75-1.57l-0.7-4.86
							c-2.59,0.01-2.85-0.16-4.38-1.58c-1.52-3.76-0.56-7.07,0.03-11.16c7.07-0.76,15.41-0.58,22.61-0.61l2.22,0.56l1.68-0.33
							L154.86,626.11z"/>
						<path style="fill:#997365;" d="M130.39,639.52c2.1-0.84,54.56-0.49,60.31-0.07l-0.86,6.5c-20.1-0.2-38.61-0.82-58.75-1.57
							L130.39,639.52z"/>
						<path style="fill:#FFFFFE;" d="M646.96,392.43l35.77,0.08c0.7,10.93,0.36,26.3,0.31,37.41c-0.07,16,0.17,32.9-0.17,48.86
							c-10.8,0.06-24.99-0.32-35.41,0.18C646.18,475.63,646.94,401.94,646.96,392.43z"/>
						<path style="fill:#F2EADF;" d="M210.43,561.72c0.93,2.24,0.76,0.82,0.55,2.78c-1.38,12.99-1.19,27.33-1.34,40.43l-0.39,75.87
							l-23.41,0.33c0.83-10.84,2.84-24.05,4.01-35.17l0.86-6.5c6.3,0.24,5.11-8.72,3.51-11.84c-3.38-1.61-22.66-0.92-27.83-0.98
							c2.26-13.11,3.49-26.53,7.55-39.26c0.97-3.05,1.94-6.1,2.87-9.16l1.58-1.26C190.36,581.15,203.19,569.95,210.43,561.72z"/>
						<path style="fill:#719C8D;" d="M209.8,446.02c1.11,1.24,1.45,1.45,1.17,3.83c-2.32,20.02-6.48,42.89-15.77,60.9
							c-1.91,3.7-5.59,6.64-7.57,8.98c-3.87,4.57-14.01,6.8-15.98,8.42c-1.62,15.48-5.04,29.82-6.5,46.41l1.16,1.51
							c2.55-10.09,6.58-20.05,11.24-29.33c0.53-5.33,11.44-20.04,16.37-21.25l1.09,0.61c-0.17,2.72-16.01,15.38-15.93,22.11
							c-1.53,6.21-4.53,13.12-6.82,19.24c-2.3,6.14-4.2,13.37-6.47,19.28c-1.27-0.65-1.49-0.81-2.63-1.67
							c-0.97-3.22-0.39-6.81-0.82-10.91c-0.19-11.08,4.18-35.1,6.72-46.09c-2.1-4.77-4.92-5.1-5.9-13.16
							c-2.28-18.81,6.37-31.75,17.11-45.77l4.83-5.32C192.07,457.57,201.43,450.19,209.8,446.02z"/>
						<path style="fill:#709B91;" d="M169.05,528.06c1.93-15.86,15-44.36,23.6-58.53c2.77-4.59,6.04-8.87,9.74-12.75
							c-3.81,9.67-9.31,17.75-13.9,26.42c-4.1,7.73-17.65,37.6-16.85,44.95c-1.62,15.48-5.04,29.82-6.5,46.41l1.16,1.51
							c2.55-10.09,6.58-20.05,11.24-29.33c0.53-5.33,11.44-20.04,16.37-21.25l1.09,0.61c-0.17,2.72-16.01,15.38-15.93,22.11
							c-1.53,6.21-4.53,13.12-6.82,19.24c-2.3,6.14-4.2,13.37-6.47,19.28c-1.27-0.65-1.49-0.81-2.63-1.67
							c-0.97-3.22-0.39-6.81-0.82-10.91C162.14,563.07,166.51,539.05,169.05,528.06z"/>
						<path style="fill:#F2EADF;" d="M165.14,574.56l1.16,1.51c-0.45,3.71-1.48,6.54-2.6,10.09
							C163.85,582.74,164.35,577.85,165.14,574.56z"/>
						<path style="fill:#FFFFFE;" d="M646.85,112.38l39.12,0.01c0.51,2.88-0.11,50.37-0.65,51.84c-12.61-0.2-25.82,0-38.47,0V112.38
							z"/>
						<path style="fill:#719C8D;" d="M177.54,546.75c-4.77-22.88,25.68-37.51,43.87-40.97c1.3-0.24,2.61-0.45,3.92-0.62
							c-8.66,16.98-23.98,45.03-46.26,43.07c-0.08-6.73,15.76-19.39,15.93-22.11l-1.09-0.61
							C188.98,526.7,178.07,541.41,177.54,546.75z"/>
						<path style="fill:#719C8D;" d="M174.93,572.81c-5.1-22.34,39.8-30.59,44.44-27.04c0.26,3.44-6.73,12.65-8.95,15.95
							c-7.24,8.24-20.07,19.44-32.05,15.24l-1.58,1.26l-1.85-1.46L174.93,572.81z"/>
						<path style="fill:#709B91;" d="M174.93,572.81c9.9-9.54,21.79-17.33,34.36-23c1.59,0.98,1.26,0.46,2.09,1.89
							c-9.28,4.3-21.9,11.05-29.19,18.49c-1.12,1.14-3.03,5.15-3.82,6.76l-1.58,1.26l-1.85-1.46L174.93,572.81z"/>
						<path style="fill:#719C8D;" d="M163.38,626.8c2.96-16.67,3.83-34.03,11.56-50.05l1.85,1.46c-0.93,3.06-1.89,6.11-2.87,9.16
							c-4.06,12.73-5.3,26.15-7.55,39.26L163.38,626.8z"/>
						<path style="fill:#FFFFFE;" d="M458.19,176.44l156.51-0.16l-0.09,142.13l0.15,39.04c0.03,5.88,0.32,16.97-0.36,22.5
							c-14.04-0.51-32.99,0.13-47.6,0.13l-108.5,0.15c-0.42-22.79-0.07-46.89-0.08-69.75L458.19,176.44z"/>
						<path style="fill:#FFFFFE;" d="M302.88,176.36l139.01-0.02l0.05,203.92l-138.47,0.11
							C303.94,312.37,303.74,244.36,302.88,176.36z"/>
						<path style="fill:#FFFFFE;" d="M458.24,112.38l156.59,0.06l-0.06,51.79c-51.79-0.53-104.73-0.02-156.6,0.02L458.24,112.38z"/>
						<path style="fill:#FFFFFE;" d="M376.51,112.11l65.76-0.08l-0.01,52.22l-72.15,0.02l-67.84-0.05
							c-0.01-17.3-0.27-34.6-0.77-51.9C325.84,111.64,352.04,112.11,376.51,112.11z"/>
						<path style="fill:#EAE0D4;" d="M54.4-98.79l1132.43,0.01l-0.01,87.07l0.01,49.59L54.56,38l-0.03-49.56
							C54.57-40.34,54.95-70.08,54.4-98.79z"/>
						<path style="fill:#F2EADF;" d="M54.54-11.57c51.26-0.87,104.16-0.03,155.63-0.02l283.44-0.09l693.21-0.03l0.01,49.59L54.56,38
							L54.54-11.57z"/>
						<path style="fill:#997365;" d="M1063.49,535.8c1.35,1.83,1.32,2.12,1.65,4.26c1.97,1.44,26.69,0.72,31.42,0.79
							c13.61,0.34,29.88,0.22,43.53-0.21c1.87,2.62,1.37,10.15,1.28,13.45c-0.98,37.1,1.12,75.22-0.21,112.17l-5.91,2.45
							c0.37,5.93,1.92,19.37,1.36,24.38c-7.7,8.32-10.82-14.16-11.71-17.47l-13.32-0.02c0.5,5.09,1.87,12.29-1.08,16.53l-1.74,0.2
							c-4.71-4.05-5.12-10.63-6.11-16.57c-34.38-0.33-68.77-0.42-103.15-0.28l-40.45,0.02c-3.96,0.01-15.79-0.83-18.59,0.67
							c-0.19,1.06-0.31,1.12-0.2,2.15c-0.78,4.87-0.12,10.62-3.3,13.06c-1.84,0.34-1.92,0.14-3.77-0.39l6.55-30.2
							c2.92-12.99,7.21-26.07,6.96-39.47c-0.2-10.8-4.95-15.71-14.2-19.92l-5.22-1.19c-5.34-0.4-7.68-0.24-13.1,1.26
							c-2.38,1.07-6.49,2.77-8.61,4.02c-0.02-8.67-1.11-60.24,1.43-63.54c5.26-2.01,36.02-1.07,43.51-0.84
							c5.15,0.74,21.98,0.54,27.24-0.28l36.62,0.1l29.42,0.06c4.37,0,12.64,0.25,16.57-0.47
							C1061.22,537.88,1061.23,537.4,1063.49,535.8z"/>
						<path style="fill:#E5D6C9;" d="M1022.7,549.73l1.57,0.34c-0.07,16.26-0.04,32.52,0.11,48.78c21.88,0.41,43.77,0.54,65.66,0.39
							c11.33-0.07,31.96-0.79,42.67,0.08l-0.06,1.85l0.02,59.26c-10.95,0.63-24.13,0.33-35.22,0.34l-60.95-0.03
							c-4.43,0.32-10.6,0.11-15.17,0.09c-26.63-0.47-54.8,0-81.56-0.04c2.92-12.99,7.21-26.07,6.96-39.47
							c-0.2-10.8-4.95-15.71-14.2-19.92l-5.22-1.19c1.83-1.19,2.67-1.23,4.77-1.7c2.62,0.49,19.64,0.42,23.6,0.45
							c22.24,0.15,44.48,0.12,66.72-0.08C1022.74,582.96,1021.85,565.3,1022.7,549.73z"/>
						<path style="fill:#E5D6C9;" d="M932.52,601.4c3.76-1.81,80.25-1.06,89.72-0.58c0.64,16.89,0.24,33.91,0.45,50.82
							c0.04,2.78,0.12,5.48-0.29,8.24l-1.09,0.95c-26.63-0.47-54.8,0-81.56-0.04c2.92-12.99,7.21-26.07,6.96-39.47
							C946.52,610.53,941.76,605.61,932.52,601.4z"/>
						<path style="fill:#997365;" d="M956.66,606.03c4.54,0,25.65-0.84,28.05,1.17c0.47,1.84-0.06,2.55-0.79,4.33
							c-5.97-0.06-23.03,1.32-26.9-1.39C956.01,607.91,956.26,608.77,956.66,606.03z"/>
						<path style="fill:#C9B5A8;" d="M1022.7,549.73l1.57,0.34c-0.07,16.26-0.04,32.52,0.11,48.78c21.88,0.41,43.77,0.54,65.66,0.39
							c11.33-0.07,31.96-0.79,42.67,0.08l-0.06,1.85c-35.41-1.08-72.79-0.32-108.27-0.2c-0.17,19.31,0.44,40.42-0.1,59.47
							c3.02,0.03,9.49-0.05,12.21,0.3c-4.43,0.32-10.6,0.11-15.17,0.09l1.09-0.95c0.41-2.76,0.33-5.46,0.29-8.24
							c-0.21-16.9,0.19-33.93-0.45-50.82c-9.47-0.48-85.96-1.23-89.72,0.58l-5.22-1.19c1.83-1.19,2.67-1.23,4.77-1.7
							c2.62,0.49,19.64,0.42,23.6,0.45c22.24,0.15,44.48,0.12,66.72-0.08C1022.74,582.96,1021.85,565.3,1022.7,549.73z"/>
						<path style="fill:#E5D6C9;" d="M914.08,549.84c32.72,0.41,65.51-0.19,98.23,0.16c3.5,0.04,6.89,0.04,10.38-0.28
							c-0.85,15.57,0.04,33.23-0.3,49.16c-22.24,0.2-44.48,0.23-66.72,0.08c-3.96-0.03-20.98,0.04-23.6-0.45
							c-2.1,0.46-2.94,0.51-4.77,1.7c-5.34-0.4-7.68-0.24-13.1,1.26l-0.11-4.08L914.08,549.84z"/>
						<path style="fill:#D9C9BD;" d="M914.1,597.39c0.41,0.31,0.81,0.62,1.22,0.93c5.07-0.57,11.78-0.77,16.76,0.2
							c-2.1,0.46-2.94,0.51-4.77,1.7c-5.34-0.4-7.68-0.24-13.1,1.26L914.1,597.39z"/>
						<path style="fill:#997365;" d="M957.95,555.71c5.49-0.11,23.4-1.57,26.88,1.34c0.52,2.13,0.34,1.49-0.51,3.93
							c-5.37,0.12-22.33,1.29-26.05-1.12C957.25,557.7,957.53,558.47,957.95,555.71z"/>
						<path style="fill:#F2EADF;" d="M685.92,90.38l59.16,0.09l3.22,0.07c1.17,4.48,1.68,25.53,1.93,31.22l2.87,67.82
							c3.16,73.82,7.52,148.06,8.46,221.89l0.71,43.46c0.1,6.99,0.54,17.69,0.02,24.49l-23.74,0.03c-5.4-0.3-12.83-0.06-18.38-0.05
							l-4.58,0.08c-22.06-0.77-45.59,0.24-67.95-0.12l-0.17-0.4c10.42-0.5,24.61-0.12,35.41-0.18c0.34-15.96,0.1-32.86,0.17-48.86
							c0.05-11.1,0.39-26.48-0.31-37.41c-0.29-3.09-0.07-9.02-0.01-12.21c1.33-7.02,0.66-37.72,0.85-46.86
							c1.06-52.33,1.64-104.68,1.73-157.02c0.12-3.64,0.45-8.74,0.02-12.19c0.54-1.47,1.16-48.96,0.65-51.84l-0.14-14.62
							L685.92,90.38z"/>
						<path style="fill:#EAE0D4;" d="M745.08,90.47l3.22,0.07c1.17,4.48,1.68,25.53,1.93,31.22l2.87,67.82
							c3.16,73.82,7.52,148.06,8.46,221.89l0.71,43.46c0.1,6.99,0.54,17.69,0.02,24.49l-23.74,0.03c2.47-0.31,2.78,0.07,4.37-1.24
							c0.61-4.1,0.2-25.34,0.17-31.31l-0.49-77.07l1.51-161.07l0.81-76.5C745.02,118.59,744.67,104.01,745.08,90.47z"/>
						<path style="fill:#EAE0D4;" d="M715.58,479.47l1.63-0.88c0.5-2.5,0.1-15.76,0.05-19.44l-0.31-37.22l-2.57-206.79l-0.54-56.55
							c-0.03-7.2-0.09-14.97-0.09-22.23c0-1.51,0.96-2.55,1.97-3.45c2.62,1.74,1.92,23.12,1.94,27.26
							c0.06,12.18,0.2,24.36,0.42,36.54l1.47,202.17l0.34,56.16c0.02,3.98-0.15,22.06,0.27,24.36L715.58,479.47z"/>
						<path style="fill:#F2EADF;" d="M158.81,89.98c12.65-0.12,25.3-0.11,37.95,0.02c4.02,0.72,9.54,0.56,13.75,0.58l-0.13,249.41
							c0.03,23.49-0.09,46.98-0.38,70.47c-0.03,8.01-0.47,27.87,0.5,35.12l-0.71,0.43c-8.36,4.17-17.72,11.54-24.72,17.78
							l-4.83,5.32c-10.74,14.02-19.39,26.96-17.11,45.77c0.98,8.07,3.8,8.39,5.9,13.16c-2.54,10.98-6.91,35.01-6.72,46.09
							c0.43,4.11-0.15,7.69,0.82,10.91c1.14,0.87,1.36,1.02,2.63,1.67c-2.3,9.06-3.82,29.71-4.18,39.76l-2.29-0.03l-1.21,0.12
							c0.09-37.58-3.75-65.8-8.14-102.68c0.84-2.38,4.53-4.85,5.36-7.32c4.75-14.06,2.04-28.44-2.52-42.1l0.19-0.67
							c1.95,0.14-0.46,0.6,1.15,1.65c1.4-7.82,1.07-27.65,1.13-36.44l0.66-56.68l2.05-243.95
							C158.05,131.82,157.54,93.29,158.81,89.98z"/>
						<path style="fill:#EAE0D4;" d="M180.25,469.13c-1.28-3.18-0.56-43.55-0.6-50.9l-0.27-222.42l-0.05-45.52
							c-0.05-7.73-0.44-17.34,0.33-25.03c0.14-1.41,0.25-1.12,1.45-1.88c2.37-0.21,2.46-0.37,4.7,0.61
							c3.59,3.56,2.24,29.07,2.21,34.99l-0.05,47.5c-0.34,62.79-1.22,125.58-2.64,188.36c-0.17,8.26-2.13,64.67-0.24,68.94
							L180.25,469.13z"/>
						<path style="fill:#719C8D;" d="M159.3,626.47c1.22-16.89,1.17-35.31,3.03-52.32c0.43,4.11-0.15,7.69,0.82,10.91
							c1.14,0.87,1.36,1.02,2.63,1.67c-2.3,9.06-3.82,29.71-4.18,39.76L159.3,626.47z"/>
						<path style="fill:#F2EADF;" d="M748.29,90.54c10.99-0.07,22.25-0.27,33.21-0.01c8.25,0.04,16.49,0.03,24.74-0.04
							c-0.85,12.77-0.43,29.62-0.45,42.73l-0.1,73.24c-0.41,73.25-0.38,146.5,0.09,219.75l0.99,69.63
							c0.2,11.4,1.04,33.34-0.51,43.97c-3.24,0.35-6.25,0.47-9.49,0.61c1.96-4.73,4.71-9.4,3.52-14.14
							c-1.25-1.82-2.04-1.87-4.14-2.6l-4.36,0.44c-3-19.27,5.64-41-21.76-44.4c-2.46-0.2-5.25-0.23-7.75-0.32
							c0.52-6.8,0.08-17.5-0.02-24.49l-0.71-43.46c-0.95-73.83-5.3-148.07-8.46-221.89l-2.87-67.82
							C749.97,116.07,749.46,95.02,748.29,90.54z"/>
						<path style="fill:#EAE0D4;" d="M770.03,479.74l1.87-0.67c0.61-2.27,0.41-18.48,0.42-22.21l0.22-49.86
							c0.57-72.24,1.75-144.48,3.54-216.7c0.37-23.52,0.95-47.03,1.72-70.54c0.2-5.77-0.22-23.57,1.96-27.36h0.82
							c1.42,3.31,3.21,30.4,3.68,35.9c3.58,39.77,6.41,79.6,8.48,119.47c2.1,57.39,3.29,114.81,3.56,172.24
							c0.29,23.04,0.38,46.09,0.27,69.13c-0.01,8.9,0.47,26.88-0.42,34.55l-4.36,0.44C788.79,504.87,797.43,483.14,770.03,479.74z"
							/>
						<path style="fill:#D9C9BD;" d="M158.81,89.98c-3.86,0.08-10.47,0.53-12.81-2.74c-9.6-13.42,15.59-10.92,20.05-10.89
							l26.16,0.04l88.46,0.01l393.84,0.06h121.01l32.53-0.05c6.6-0.06,21.37-1.69,26.16,2.7c1.56,3.37,0.86,10.11-2.05,10.3
							c-19.38,1.26-51.95,0.29-70.51,0.56l-0.17,0.54c-10.96-0.26-22.22-0.06-33.21,0.01l-3.22-0.07l-59.16-0.09l-0.09,7.39H301.9
							l-0.55-7.85c-34.87-0.72-69.75-0.69-104.61,0.08C184.11,89.87,171.46,89.86,158.81,89.98z"/>
						<path style="fill:#E5D6C9;" d="M301.38,89.92l326.77,0.1l103.98-0.17c14.91,0.01,35.08-0.61,49.53,0.14l-0.17,0.54
							c-10.96-0.26-22.22-0.06-33.21,0.01l-3.22-0.07l-59.16-0.09l-0.09,7.39h-383.9L301.38,89.92z"/>
						<path style="fill:#F2EADF;" d="M825.41,90.65h23.61c1.39,110.02,2.16,220.04,2.29,330.07c-0.09,41.29,0.06,82.57,0.45,123.86
							c0.1,16.82-0.43,36.54,0.16,53.06c-8.1,5.6-9.93,9.25-12.22,18.86c-1.48-2.49-0.19-33.68-0.59-38.66
							c-1.23-15.08,3.33-26.21-12.54-34.95c0.56-0.61,1.23-1.34,2.02-2.2c0.54-10.94,0.42-26.2,0.41-36.8
							c0.08-40.67-0.1-81.35-0.54-122.02c0.04-59.66-0.39-119.32-1.3-178.98l-0.75-61.09c-0.15-14.74-0.07-31.9-0.68-46.39
							C825.65,93.82,825.54,92.23,825.41,90.65z"/>
						<path style="fill:#719C8D;" d="M117.65,433.04c19.65,11.77,24.47,23.53,35.13,41.45c4.56,13.66,7.27,28.05,2.52,42.1
							c-0.83,2.47-4.52,4.94-5.36,7.32c4.39,36.89,8.22,65.1,8.14,102.68l-2.15-0.41c0.17-5.54-0.53-13.94-0.82-19.66
							c-1.06-20.39-3.15-40.94-5.03-61.28c-0.62-6.71-2.01-13.14-2.41-19.91l-0.74-2.03c-6.77-2.38-11.75-6.07-16.27-11.57
							c-3.88-4.75-6.81-10.2-8.62-16.06C117.51,481.35,116.24,448.32,117.65,433.04z"/>
						<path style="fill:#709B91;" d="M146.93,523.29c-0.1-20.02-4.99-34.83-12.92-53.11c-2.47-5.69-6.72-15.52-8.06-21.42
							c10.06,18.75,26.06,54,23.68,75.29l-1.96,1.27L146.93,523.29z"/>
						<path style="fill:#719C8D;" d="M139.24,554.95c-19.78,1.02-31.08-15.91-37.33-31.89c-1.69-4.33-10.76-23.37-8.57-26.8
							c12.42-2.94,65.14,38.43,47.41,57.68l-0.38,0.24l-1.78-2.91l-0.4,0.91C138.59,553.09,138.95,554,139.24,554.95z"/>
						<path style="fill:#719C8D;" d="M84.57,545.99c13.01,0.22,27.2,4.73,38.73,10.55c8.68,4.38,23.13,16,17.08,26.92
							c5.57,12.45,10.43,29.6,10.49,43.27l-2.22-0.56c-1.54-10.84-5.13-32.65-10.66-41.4c-5.29,1.21-6.98,1.23-12.39,0.07
							C112.08,581.94,91,557.82,84.57,545.99z"/>
						<path style="fill:#709B91;" d="M137.99,584.77c-6.31-12.56-20.86-20.15-32.85-26.41c-3.11-1.62-8.09-3.72-10.64-5.8l0.31-1.3
							l0.92-0.12c17.59,8.49,33.91,15.37,44.65,32.31c5.57,12.45,10.43,29.6,10.49,43.27l-2.22-0.56
							C147.11,615.34,143.52,593.52,137.99,584.77z"/>
						<path style="fill:#BB816E;" d="M950.54,541.11l0.18-0.21c-0.53-2.75-4.13-7.85-4.68-11.86c-0.61-4.52-3.34-7.34,0.06-11.94
							c1.98-1.31,3.02-1.07,5.4-1.07c4.01,0.92,21,0.83,24.86,0.06c3.07-0.08,2.82-0.54,5.14,0.72c3.92,6.33-0.44,18.02-3.73,24.02
							C972.51,541.65,955.69,541.85,950.54,541.11z"/>
						<path style="fill:#719C8D;" d="M957.55,502.09c-0.35-5.18-1.3-8.21,1.41-12.41l1.31-0.59c4.02,1.63,4.01,7.6,4.39,11.34
							c2.22-4.59,3.11-7.41,7.15-10.5l1.35-0.14c2.24,3.34,0.18,8.49-0.86,12.13c2.12-2.71,3.69-4.85,7.29-5.41l0.86,0.51
							c0.8,3.5-0.89,5.5-2.83,8.25l0.19,0.71l3.5-0.24l0.93,0.82c0.1,3.95-3.15,6.98-5.89,9.53c-3.86,0.77-20.85,0.85-24.86-0.06
							c-3.21-3.38-4.31-4.24-5.26-8.78l0.49-1.27c2.38-0.71,3.35,0.32,5.41,1.57c-1.49-3.59-4.66-9.23-1.55-12.63
							C954.29,494.82,956.05,499.14,957.55,502.09z"/>
						<path style="fill:#C9B5A8;" d="M1014.4,540.93c0.06-1.94-0.11-2.89,0.93-4.53c5.62-2.3,38.73-0.2,47.17-0.55l1-0.05
							c-2.26,1.59-2.27,2.08-3.1,4.72c-3.93,0.73-12.21,0.48-16.57,0.47L1014.4,540.93z"/>
						
							<linearGradient id="SVGID_00000062872299831377611310000013832982679522281915_" gradientUnits="userSpaceOnUse" x1="142.6193" y1="5972.5835" x2="150.9726" y2="5970.0415" gradientTransform="matrix(1 0 0 1 0 -5382.6489)">
							<stop  offset="0" style="stop-color:#638C7E"/>
							<stop  offset="1" style="stop-color:#7BA889"/>
						</linearGradient>
						<path style="fill:url(#SVGID_00000062872299831377611310000013832982679522281915_);" d="M139.24,554.95
							c-0.29-0.96-0.65-1.86-1.05-2.77l0.4-0.91l1.78,2.91l0.38-0.24c9.15,14.46,13.46,54.48,14.11,72.16l-2.3,0.29
							c0.32-4.95-0.98-10.81-1.3-15.8C149.97,590.56,145.01,573.97,139.24,554.95z"/>
						<path style="fill:#997365;" d="M938.71,174.28c43.88-0.96,91.91,0.08,136.16,0.14c0.06,47.02,0.67,95.9-0.13,142.78
							c-45.4,0.2-90.8,0.14-136.2-0.16l-0.11-90.2C938.44,210.5,937.87,190.27,938.71,174.28z"/>
						<path style="fill:#F2EADF;" d="M947.15,181.49c39.24-0.19,81.7-0.61,120.79,0.18c0.49,33.64-0.49,67.5-0.18,101.17
							c0.08,8.81,0.12,18.2-0.29,26.99c-40.49,0.43-81.27,0.03-121.81,0.05c0.35-29.46-0.09-59.08,0.12-88.52
							c0.07-9.32-0.77-31.76,0.16-39.45L947.15,181.49z"/>
						<path style="fill:#E5D6C9;" d="M961.09,197l62.09,0.05c5.73,0,24.04-0.34,28.46,0.46c0.48,0.68,0.67,0.83,0.98,1.58
							c-0.16,3.86,0.13,14.07-0.21,16.51c0.21,26.29,0.19,52.58-0.05,78.87l-10.83,0.04c-12.57,2.06-59.3-0.12-74.19,0.16
							c-2.78,0.05-4.94-2.64-6.52-4.72l-0.07-62.18C960.74,220.49,960.28,203.27,961.09,197z"/>
						<path style="fill:#E5D6C9;" d="M974.28,294.32c3-3.51,9.48-9.56,12.98-13.04c6.11-6.12,12.16-12.29,18.15-18.52
							c10.15-10.41,20.37-20.75,30.67-31.02c5.19-5.2,10.87-11.33,16.32-16.14c0.21,26.29,0.19,52.58-0.05,78.87l-10.83,0.04
							C1019.82,293.85,996.24,294.53,974.28,294.32z"/>
						<path style="fill:#EAE0D4;" d="M960.82,289.95l-0.07-62.18c-0.01-7.28-0.47-24.5,0.34-30.77c0.54,4.79,0.39,10.01,0.35,14.84
							c-0.21,26.02,0.25,52.11-0.03,78.12c15.08-16.67,35.78-35.7,51.82-52.06c9.45-9.63,30.02-31.03,39.4-38.82
							c-0.16,3.86,0.13,14.07-0.21,16.51c-5.45,4.82-11.13,10.94-16.32,16.14c-10.3,10.27-20.52,20.61-30.67,31.02
							c-5.99,6.23-12.04,12.4-18.15,18.52c-3.49,3.48-9.98,9.53-12.98,13.04c21.96,0.21,45.54-0.47,67.25,0.19
							c-12.57,2.06-59.3-0.12-74.19,0.16C964.56,294.71,962.4,292.02,960.82,289.95z"/>
						<path style="fill:#F2EADF;" d="M1014.68,414.02c16.51-0.04,32.74-0.18,49.25,0.42c5.67,13.03,13.94,39.08,18.23,53.13
							l-41.82,0.4l-3.83-0.08c-13.38,0.34-26.77,0.31-40.15-0.07L1014.68,414.02z"/>
					</g>
				</g>
			</g>
		</g>
	</g>
	<g>
		<g>
			<g>
				<g>
					<defs>
						<path id="SVGID_00000150784147988542914700000018269018205833981599_" d="M884.31,526.75
							c0,216.49-179.92,391.98-401.86,391.98c-178.25,0-329.39-113.2-381.99-269.92c-35.06,16.92-95.15-35.7-95.15-78.32
							C5.31,354,212.15,80.08,434.09,80.08c129.81,0,303.35-24.17,376.82,68.98c16.66,21.12,73.74,6.84,85.77,31.05
							c11.07,22.29,109.46,102.03,116.08,126.43C1021.44,338.62,884.31,492.02,884.31,526.75z"/>
					</defs>
					<clipPath id="SVGID_00000180335743784146394380000010445127840093993116_">
						<use xlink:href="#SVGID_00000150784147988542914700000018269018205833981599_"  style="overflow:visible;"/>
					</clipPath>
					<g style="clip-path:url(#SVGID_00000180335743784146394380000010445127840093993116_);">
						<path style="fill:#BC5C48;" d="M783.88,553.03l-8.12,18.73l-17.04,81.64l6.02,22.54l26.81-14.12c0,0,15.67-1.24,19.41-7.98
							c3.74-6.75,12.36-28.21,12.36-28.21l-31.13-58.28l-0.2-3.81l-0.96,0.16l-1.69-14.21L783.88,553.03z"/>
						<path style="fill:#DDC5AF;" d="M537.18,566.06c0,0,20.32,13.4,23.74,25.07c3.42,11.66,11.83,40.3,12.14,50.57l66.54-36.4
							l-30.9-142.96l-14.56-17.04L537.18,566.06z"/>
						<path style="fill:#3C1C17;" d="M713.59,188.84c0,0,34.55,8.67,32,45.06s-10.77,45.18-21.83,45.75L713.59,188.84z"/>
						<path style="fill:#F5E7D2;" d="M797.04,548.7c-5.67,9.36-17.35,10.12-17.35,10.12L631.1,509.16l-17.57-56.58l-13.1-4.02
							c10.58,43.81,4.81,112.7,4.81,112.7c-25.03-10.96-23.74-53.27-23.74-53.27l-2.24-0.34c-0.32,13.59-14.26,79.27-14.26,79.27
							s-0.07,0.44-1.87,0.43c-1.19-0.01-2.48-0.07-3.85-0.19c-15.86-1.29-41.61-9.12-47.36-10.59c-1.4-0.35-3.62-1.21-6.21-2.34
							c-9-3.85-22.59-10.8-22.59-10.8s0-20.71,13.14-73.26s27.87-58.92,40.92-68.83c13.04-9.91,45.48-19.95,54.23-24.32l38.71-4.36
							c0,0,32.82-3.71,73.16,11.53c40.34,15.23,44.68,19.23,55.85,34.05C770.31,453.07,798.05,547.03,797.04,548.7z"/>
						<path style="fill:#13454A;" d="M780.54,773.64c1.27,8.19,3.01,15.59,3.01,15.59c-12.25,13.35-24.93,25.28-37.81,35.92
							c-37.85,31.27-77.32,51.47-111.91,64.48c-0.01,0-0.01,0-0.01,0c-1.78,0.68-3.54,1.33-5.28,1.96
							c-24.52,8.85-46.35,14.1-63.06,17.19c-21.08,3.91-34.05,4.39-34.05,4.39c0-44.04,16.56-139.56,16.56-139.56l-4.15-8.61
							l-5.7,6.22c-3.31-0.34-17.82,51.01-21.13,51.01s-9.17-5.09-9.17-5.09c4.33-16.54,22.11-53.87,22.11-53.87
							c-7.71,1.05-21.01-4.91-19.61-18.21c1.4-13.32,37.82-37.48,37.82-37.48l24.47-65.7c9.18-6.01,25.33-40.22,33.25-61.76
							c7.93-21.55,6.98-65.25,4.44-81.09s-20.85-100.63-20.61-104.62c0.23-3.99,11.75-11.29,14.34-13.16
							c2.58-1.89,4.47-1.41,4.47-1.41l-2.08,6.38c-5.13,1.86-2.56,3.73,2.09,23.5c4.65,19.78,25.36,80.74,25.36,80.74l106.09-5.36
							c-6.51-20.71-44.67-78.63-49.33-84.68c-4.65-6.05-12.33-9.08-12.33-9.08V386c8.62,1.63,13.04,5.34,27.7,20.48
							c14.66,15.12,50.37,72.87,65.04,98.17c14.66,25.3,12.06,26.73,12.5,42.55c0.43,15.8-6.48,43.4-6.48,43.4
							s-11.49,49.99-12.45,72.55c-0.47,11.08,3.46,31.43,7.41,50.41c4.09,19.65,8.21,37.84,7.47,42.72
							C778.87,760.48,779.56,767.29,780.54,773.64z"/>
						<path style="fill:#BC5C48;" d="M619.31,656.95l-10.99,56.28c-48.69-1.05-94.5-13.09-94.5-13.09l-11.04-4.32l-6.01-61.22
							l1.44-9.64l6.62-44.6l0.91-6.12c2.59,1.13,4.81,1.98,6.21,2.34c5.75,1.47,31.49,9.3,47.36,10.59l-3.14,13.89l-5.92,26.11
							l-2.14,9.45l-0.1,0.44c8.86,0.85,51.21,13.71,66.12,18.3C617.36,656.34,619.31,656.95,619.31,656.95z"/>
						<path style="fill:#C77159;" d="M614.11,655.34c-0.93,1.5-1.89,3.31-2.7,5.42c-2.67,6.87-13.63,42.46-14.67,42.9
							c-1.05,0.45-62.22-5.19-78.56-15.42c-10.26-6.43-16.65-39.55-19.99-63.28l6.62-44.6l4.59,1.73l46.75,18.97l-5.92,26.11
							c-4.25,3.38-15.8,8.03-16.36,8.89c-0.6,0.89,0.29,0.89,1.85,0.89c0.51,0,5.66-0.15,12.37-0.33l-0.1,0.44
							C556.86,637.9,599.21,650.75,614.11,655.34z"/>
						<path style="fill:#343745;" d="M427.82,802.84c0,0,24.19-7.29,25.84-1.33c1.66,5.96,24.22,48.98,23.22,115.57l-37.04-2.57
							L427.82,802.84z"/>
						<path style="fill:#E18462;" d="M310.47,418.84c0,0-0.67,8.1-2.52,9.54s-11.39,10.24-12.42,13.75
							c-1.03,3.5-5.18,25.87-1.34,36.64c3.83,10.77,6.94,16.79,20.08,15.52c13.14-1.28,35.41-8.65,64.07-37.64
							c0,0,7.76-19.13,7.39-26.43s-6.01-9.29-7-10.62l-1.12-55.89l-67.13,24.11v31.02H310.47z"/>
						<path style="fill:#CB5B49;" d="M310.47,396.83v24.13c0,0,52.85-0.01,69.95-55.77L310.47,396.83z"/>
						<path style="fill:#3F1B16;" d="M415.62,330.69c0,0,6.51-0.43,16.06,9.55c9.55,9.99,14.33,26.7,11.07,40.38
							c-3.26,13.68-16.28,30.82-32.56,33.86c-16.28,3.04-28.87,1.95-34.3-4.78s-9.99-72.29-9.99-72.29L383.27,322L415.62,330.69z"/>
						<path style="fill:#2A100A;" d="M272.95,220.16l-36.41,32.61l5.17,15.38c0,0-8.64,26.95,9.37,38.24c0,0,3.04,5.21-1.52,11.5
							s-11.9,19.5-7.6,28.65c4.59,9.76,14.24,17.4,14.55,24.7c0.25,5.83-2.23,10.04-2.59,11.84c0,0,7.38-6.71,5.58-14.12
							c-1.3-5.38-15.81-20.9-14.29-29.15s17.37-34.59,19.97-43.85c1.83-6.49,23.44-62.08,23.44-62.08L272.95,220.16z"/>
						<path style="fill:#E18565;" d="M286.56,221.8c0,0-18.15,9.36-24.88,29.09c-7.39,21.65-4.98,39.08-4.56,50.54
							s-1.97,39.96,5.46,55.29c7.44,15.33,27.58,43.6,44.42,45.4c16.84,1.8,38.22-7.52,60.6-24.35s18.48-31.27,22.99-33.37
							c4.51-2.1,2.94,6.61,14.25,1.2c11.31-5.41,19.12-12.33,22.13-26.16c3.01-13.83-3.06-19.91-9.35-22.88
							s-19.17-27.69-19.17-27.69l-30.85-33.91L286.56,221.8z"/>
						<path style="fill:#2A100A;" d="M426.85,306.29c-2.78-7.15-8.63-10.7-14.61-10.8c-2.52-0.06-5.08,0.51-7.43,1.68
							c-0.58,0.29-1.14,0.63-1.68,1.02c-6.7,4.72-9.56,15.53-9.56,15.53s0.15,0.77-0.75,0c-0.91-0.75-2.9-21.11-8.67-24.91
							c-9.26-6.84-16.56-25.67-16.56-25.67l3.94-14.54c0,0,28.72-11.1,29.23-10.93s27.89,37.77,27.89,37.77
							C430.8,287.14,426.85,306.29,426.85,306.29z"/>
						<path style="fill:#5C2C26;" d="M423.76,300.34c-3.92-5.26-10.86-6.05-13.12-6.81c-2.26-0.75-22.94-18.7-23.99-19.16
							c-1.05-0.45-0.74,1.36-0.74,1.36c3.24,6.84,20.42,16.56,26.34,19.76c-2.52-0.06-5.08,0.51-7.43,1.68
							c-0.58,0.29-1.14,0.63-1.68,1.02c-15.73-2.86-24.92-20.52-24.92-20.52c-0.4-0.72,9.93-4.2,9.93-4.2s38.02-0.45,38.93,10.26
							C428.28,297.89,423.76,300.34,423.76,300.34z"/>
						<path style="fill:#C3573D;" d="M396.2,330.69c0,0,1.53-15.33,6.13-20.06s9.61-7.52,13.93-6.4c4.32,1.11,6.55,6.54,5.29,6.4
							c-1.25-0.14-4.46-4.04-8.92-1.95c-4.46,2.09-8.92,4.51-8.92,5.39s6.33,0.88,7.41,5.82c1.08,4.94-0.72,13.49-6.98,15.17
							C397.89,336.74,395.41,336.14,396.2,330.69z"/>
						<path style="fill:#D37154;" d="M405.48,316.99c-2.2-1.25-4.7,2.45-5.18,5.02s-3.33,8.83-1.85,9.07
							c1.48,0.24,3.29,0.48,4.13,0.96s3.39-0.22,3.97-1.93S412.7,321.09,405.48,316.99z"/>
						<path style="fill:#DC7553;" d="M285.77,356.96c0,0,5.09,11.11,6.62,13.41s5.62,8.18,16.48,7.15s19.16-8.56,23.89-15.2
							s6.09-12.55,6.09-12.55l-30.74,9.16l-23.78-6.59L285.77,356.96z"/>
						<path style="fill:#57221F;" d="M284.32,352.33c0,0,5.95,14.44,21.59,14.29c15.64-0.15,31.55-13.6,32.93-16.86L284.32,352.33z"
							/>
						<path style="fill:#F4F8F7;" d="M364.8,297.11c0,0-5.18,12.82-14.94,14.48c-7.86,1.33-24.62,0.71-25.43-3.55
							c-0.84-4.4,9.9-16.65,14.56-16.98c4.67-0.32,19.17,1.16,19.17,1.16L364.8,297.11z"/>
						<path style="fill:#33130F;" d="M324.43,305.51c0,0,2.18-13.89,14.56-17.07c12.39-3.18,21.76,3.52,23.6,4.69
							s5.69,1.84,5.69,1.84s-2.43,5.41-5.83,3.45c-3.04-1.75-5.58-3.35-5.58-3.35S338.93,281.72,324.43,305.51z"/>
						<path style="fill:#E3CAB2;" d="M818.04,469.13c0,0-1.56-14.04,1.56-17.16c0,0,0.26-22.62,11.7-20.28s5.72,16.64,5.72,16.64
							s15.6-2.86,17.68-1.82s7.28,2.6,7.28,2.6l5.2-18.72c0,0,7.02,24.7,8.84,29.63c1.82,4.94,6.24,5.98,6.24,9.1
							s-1.56,34.83-5.98,42.11s-23.14,28.33-24.18,31.19s-20.54,83.7-23.14,85c-2.6,1.3-13,6.76-26.25,0s-26.25-15.86-26.25-35.87
							c0-4.42,40.03-56.15,40.55-64.73c0.52-8.58-8.58-14.3-7.02-33.01S818.04,469.13,818.04,469.13z"/>
						<path style="fill:#275E63;" d="M430.37,280.83c0,0-9.51-11.98-34.57-21.85c-0.21,0.09-0.43,0.17-0.65,0.27
							c-6.33,2.57-16.59,6.15-32.81,5.26c-16.79-0.93-24.74-9.07-34.33-15.02c-9.58-5.95-26.06-18.95-50.16-20
							c-27-1.17-36.16,38.65-36.16,38.65s-21.78,4.74-32.05-1.84c-2.65-1.69-4.53-4.14-5.08-7.61
							c-2.68-16.92,27.79-32.25,50.41-35.63c0,0,18.05-75.98,99.36-57.36c53.73,12.31,69.12,40.26,74.21,57.97
							C428.56,223.67,436.93,258.56,430.37,280.83z"/>
						<path style="fill:#2A100A;" d="M254.29,282.18c0,0,5.94-7.39,19.11-5.62c13.17,1.77,15.58,5.01,17.18,4.27
							c1.61-0.74,1.56-5.23-1.95-7.16s-12.66-4.34-18.44-3.37s-10.44,2.89-15.25,8.67L254.29,282.18z"/>
						<path style="fill:#3A1D18;" d="M339.41,269.2c-8.82,1.04-18.43,4.34-18.43,5.99s0.3,7.08,4.19,5.64
							c3.9-1.44,18.43-8.3,30.56-5.69c12.14,2.6,15.58,7.05,15.58,7.05v-1.35C371.32,280.83,362.33,266.5,339.41,269.2z"/>
						<circle style="fill:#321210;" cx="347.34" cy="300.34" r="10.29"/>
						<circle style="fill:#EBE7E4;" cx="342.57" cy="297.62" r="2.71"/>
						<path style="fill:#F9F9F8;" d="M261.68,298.99c0,0,0.84,11.97,12.96,13.22c12.12,1.26,13.99-4.62,13.99-4.62l-7.27-16.08
							l-13.57,0.96l-5.22,4.84L261.68,298.99z"/>
						<circle style="fill:#2E0F0C;" cx="281.36" cy="302.49" r="9.25"/>
						<circle style="fill:#F1ECF2;" cx="277.08" cy="298.99" r="2.44"/>
						<path style="fill:#2A100A;" d="M257.12,296.07c0,0,1.92,0.84,3.72-0.6s6.36-7.92,15.6-6.12c9.24,1.8,14.41,7.86,14.17,13.48
							c0,0-1.43,3.37-1.98,0.22c-0.55-3.14-12.67-14.06-18.91-9.26S261.08,301.11,257.12,296.07z"/>
						<path style="fill:#FBFDFD;" d="M288.03,352.94c0,0,4.25,14.29,20.89,13.67c16.64-0.63,26.32-15.39,26.32-15.39L288.03,352.94z
							"/>
						<path style="fill:#562822;" d="M421.9,335.89c0,0,2.63,12.3-2.48,24.02c-5,11.47-16.54,14.88-7.22,29.92
							c3.06,4.94,13.68,7.37,22.25,0C443.02,382.46,448.44,352.91,421.9,335.89z"/>
						<path style="fill:#C7583B;" d="M284.32,352.33c0,0,7.52-2.22,28.88-2.56c21.36-0.34,25.64,0,25.64,0s-14.36,6.49-28.03,6.49
							C297.14,356.26,288.25,355.92,284.32,352.33z"/>
						<path style="fill:#CB5B49;" d="M328.15,469.01c0.44,0.48,4.68-3.15,10.69-3.34s30.36-1.24,30.36-1.24l4.58-3.63
							c0,0-29.31-0.38-36.28,1.91C330.53,465,327.59,468.41,328.15,469.01z"/>
						<path style="fill:#CB5B49;" d="M292.64,459.56c0,0,13.6,4.27,17.83,5.36l0.84-0.78c0,0-7.3-6.96-18.67-6.45L292.64,459.56
							L292.64,459.56z"/>
						<path style="fill:#15484B;" d="M391.61,254.44c0,0-1.66-17.91,0.25-42.83c1.63-21.3-14.17-36.92-15.73-38.47
							c-1.55-1.55,0.42-0.74,0.42-0.74s18.75,14.07,17.46,39.8s0.92,46.39,0.92,46.39L391.61,254.44z"/>
						<path style="fill:#255860;" d="M395.15,259.25c-6.33,2.57-16.59,6.15-32.81,5.26c-16.79-0.93-24.74-9.07-34.33-15.02
							c-9.58-5.95-26.06-18.95-50.16-20c-27-1.17-36.16,38.65-36.16,38.65s-21.78,4.74-32.05-1.84c-1.11-1.28-1.74-2.02-1.74-2.02
							c-0.19-6.05,0-23.45,35.72-34.99c35.72-11.54,60.08,3.3,67.95,6.96c7.88,3.66,28.66,19.42,35.75,21.43
							c7.11,2.02,21.21,9.15,47.59,0.91L395.15,259.25z"/>
						<path style="fill:#C0503A;" d="M293.55,286.79c0,0,3.69,8.51,2.96,17.18s-8.48,27.17-8.48,29.8c0,3.07,6.97,13.3,16.81,8.88
							c8.35-3.75,11.01-3.57,12.2-4.75c1.18-1.18,1.52-6.09-0.57-7.08c-0.92-0.43,1.01,6.04-0.66,6.41s-4.59-0.63-12.22,3.52
							c-6.34,3.45-12.97-4.19-12.4-8.14c0.36-2.53,6.39-14.9,7.13-19.25s3.42-14.92-4.35-26.57"/>
						<g>
							<path style="fill:#B6E0F4;" d="M87.36,484.35c0,0-4.08,44.04-7.21,50.92c-3.13,6.87-9.71,15.04-11.47,22.34
								s-4.58,16.97-1.13,49.41s3.45,38.67,11.4,39.74s50.92-2.07,56.29-2.54c5.37-0.47,9.56-3.24,9.01-14.43
								s-6.96-88.51-6.96-88.51l-16.01-44.26l-8.81-15.25H86.03L87.36,484.35z"/>
							<path style="fill:#64B6DD;" d="M126.62,558.66c1.85,1.65,3.16,3.79,3.8,6.17c0.94,3.52,1.83,6.48,3.53,22.64
								c2.15,20.41,4.96,40.82,3.34,43.83s-4.84,6.02-14.51,6.45s-35.88,0.86-38.89,1.29s-4.94-4.73-5.59-10.53
								c-0.64-5.8-5.37-49.2-5.16-54.35c0.21-5.16,7.52-25.14,26-26C112.14,547.55,121.94,554.49,126.62,558.66z"/>
						</g>
						<g>
							<path style="fill:#1F5869;" d="M118.34,466.3v21.04c-1.87-0.33-3.8-0.58-5.77-0.77c-0.78-0.09-1.57-0.15-2.37-0.21
								c-0.83-0.05-1.66-0.1-2.5-0.13c-0.78-0.04-1.57-0.06-2.36-0.07c-0.82-0.01-1.66-0.01-2.5,0c-0.78,0-1.57,0.01-2.37,0.04
								c-0.83,0.01-1.66,0.05-2.5,0.09c-0.78,0.04-1.57,0.09-2.36,0.13c-0.83,0.05-1.66,0.12-2.5,0.18l-2.37,0.22
								c-1.52,0.15-3.07,0.33-4.61,0.52l-0.67-20.99C85.45,465.08,118.34,465.03,118.34,466.3z"/>
							<g>
								<polygon style="fill:#3B8392;" points="90.74,486.81 90.74,468.76 93.11,468.76 93.11,486.59 								"/>
								<path style="fill:#3B8392;" d="M97.97,468.76v17.52c-0.78,0.04-1.57,0.09-2.36,0.13v-17.65H97.97z"/>
								<path style="fill:#3B8392;" d="M102.84,468.76v17.4c-0.78,0-1.57,0.01-2.37,0.04v-17.43h2.37V468.76z"/>
								<path style="fill:#3B8392;" d="M107.7,468.76v17.47c-0.78-0.04-1.57-0.06-2.36-0.07v-17.4H107.7z"/>
								<path style="fill:#3B8392;" d="M112.57,468.76v17.81c-0.78-0.09-1.57-0.15-2.37-0.21v-17.6H112.57z"/>
							</g>
						</g>
						<path style="fill:#F6F0E2;" d="M197.17,560.21c0,0,1.11-19.28,16.4-53.64s17.51-44.77,34.35-52.75s40.44-17.51,44.71-17.07
							l-65.99,69.15L197.17,560.21z"/>
						<path style="fill:#D36B50;" d="M198.48,578.66l-8,29.27l-29.33-2.4c0,0-17.64-58.72-17.11-62.45s-3.2-23.44-3.2-23.44
							l-20.77-31.16c0,0-5.34-6.68-6.9-8.04c-1.56-1.36-8.45-3.82-8.45,2.54s3.81,14.94,15.1,21.29c0,0-2.22,10.01,3.65,22.09
							s10.65,23.52,12.4,31.78s9.8,64.03,8.16,76.36c-0.82,4.38-1.37,4.65,0.82,11.23c2.19,6.57,14.51,37.51,28.2,51.75
							s20.18,17.25,25.43,18.07s20.3-5.75,33.99-24.64l-15.61-107.06L198.48,578.66z"/>
						<path style="fill:#FCF8EC;" d="M397.69,429.08c0,0,1.99,3.42,10.99,6.4c9,2.98,43.44,16.37,49.82,22.54
							s15.73,11.48,22.32,28.7s11.27,28.98,11.69,31.07s1.49,12.09,1.49,12.09l-93.12-82.49L397.69,429.08z"/>
						<path style="fill:#F5E7D2;" d="M504.94,591.13c-0.07,0.04-0.16,0.07-0.24,0.1c-4.71,1.96-11.86,4.59-21.83,8.44
							c-15.85,6.11-34.39,9.52-44.67,10.76c-0.23,0.02-0.45,0.06-0.67,0.09c-3.18,0.37-5.48,0.51-6.54,0.46
							c-4.43-0.23-21.92-3.32-21.92-3.32c-4.58,16.25-24.74-15.59-31.06-13.7s-160.01,0.66-163.19,0
							c-3.17-0.67-23.53-11.91-25.13-13.35c-1.58-1.46,2.12-10.32,5.43-18.26c0,0,16.45-43.35,27.74-72.6
							c11.31-29.27,27.27-34.8,38.8-39.91c11.52-5.09,30.97-11.3,30.97-11.3l9.33,1.55l63.95,13.31c0,0,30.73-19.51,34.94-19.51
							s31.7,13.52,50.09,21.73c18.39,8.19,27.26,30.36,35.56,50.97c8.07,20.71,24.72,77.35,25.39,79.8
							C512.24,587.65,510.11,588.97,504.94,591.13z"/>
						<path style="fill:#F5E7D2;" d="M427.04,741.93l14.95,68.29c0,0,16.96-5.58,18.75-11.16s-29.91-62.04-29.91-62.04
							L427.04,741.93z"/>
						<path style="fill:#E4C8B7;" d="M411.16,537.73h2.49c0,0,11.22,60.75,16.57,72.51l-10.73,39.72l-31.75-4.48l-10.33-42.91
							c0,0-1.02-10.11,4.24-10.32C386.92,592.04,410.78,586.11,411.16,537.73z"/>
						<path style="fill:#13454A;" d="M477.75,827.35c2.18,5.89,3.1,6.21-1.86,9c-4.95,2.8-6.76-0.46-6.76-0.46
							c-11.98-48.71-39.13-91.5-39.97-92.81c16.26,36.85,25.81,172.65,25.81,172.65c-12.89-0.77-25.35-2.14-37.34-4.03
							c-119.19-18.74-192.71-87.48-201.47-96.05c-0.6-0.57-0.89-0.88-0.89-0.88s8.08-53.47,11.74-80.6
							c3.65-27.12,1.56-59.21,1.56-59.21c-1.3-30.52-26.34-83.73-12.77-120.51c11.27-30.57,56.6-98.59,68.53-113.2
							c11.93-14.61,25.68-18.79,25.68-18.79l-0.84,5.63c-19.98,12.06-57.24,93.25-57.24,93.25l106.22,5.41
							c0,0,8.28-26.28,17.82-58.69c9.53-32.41,9.76-48.83,9.76-48.83c7.06,3.76,13.37,12.89,13.37,12.89
							c-2.31,10.16-18.32,106.28-19.87,132.46c-1.53,26.19,4.01,39.13,12.02,61.92c8.01,22.8,26.95,65.63,26.95,65.63
							s4.81,24.97,6.67,25.89c1.86,0.94,12.56,6.37,26.05,15.36c13.5,9,28.07,25.89,28.6,32.41c0.51,6.51-6.42,9.78-10.91,13.18
							c-4.5,3.42-12.26,0-9.62,3.26C461.62,785.47,475.59,821.45,477.75,827.35z"/>
						<path style="fill:#2B5258;" d="M378.02,416.09c0,0,6.42,2.06,8.9,3.81c2.48,1.75,0.69,6.69,0.69,6.69l-2.41-0.78
							c0,0-2.69-3.8-6.66-5.7L378.02,416.09z"/>
						<path style="fill:#1D626A;" d="M215.13,564.82c-1.95,7.52-4.15,17.4,0.99,20.16c5.14,2.77,39.93,7.91,83.03,5.54l32.22,3.76
							c0,0,25.9,0.59,35.39-1.58s11.47-2.77,11.47-2.77s-4.44-38.94,4.9-81.84s15.07-73.74,14.47-76.31c0,0-7.31-8.78-10.28-10.82
							c0,0-7.12,38.89-10.28,50.75c-3.16,11.86-16.61,56.34-18.58,56.54c-1.98,0.2-104.97-3.95-106.75-4.94s-2.17-3.12-1.19-5.51
							c0.99-2.39,39.17-82.26,54.77-90.76c0,0-4.56,0-5.35,1.19s-24.91,25.78-29.26,32.56
							C266.33,467.55,222.45,536.55,215.13,564.82z"/>
						<path style="fill:#1D626A;" d="M417.64,911.68c-14.74-2.31-28.79-5.41-42.11-9.05c-1.53-0.41-3.06-0.84-4.57-1.29
							c-91.57-26.22-147.24-78.33-154.8-85.71c3.27-20.65,6.54-42.17,6.77-46.71c0.44-9.22,5.84-34.83,7.41-40.22
							s1.35-32.59,1.35-34.84c0-2.24,4.49-15.5,4.94-17.75s-5.17,2.25-1.13-4.04c4.05-6.29,19.86-13.22,20.45-11.24
							c1.11,3.64-0.44,6.62-3.09,10.82s-4.53,12.37-5.08,15.9c-0.55,3.54,5.64,8.29,5.64,8.29s-1.11,2.42-0.67,7.51
							c0.44,5.08,9.39,7.17,15.9,7.28c6.53,0.12,11.27-0.11,12.04,1.22c0.78,1.33-1.78,15.69-1.89,19.38
							c-0.12,3.7,4.16,6.09,5.13,7.51c0.95,1.44,0,4.18,0.71,9.78c0.72,5.6,10.02,7.51,14.78,6.55c4.77-0.95,15.38-3.57,20.39-3.81
							c5-0.23,8.46,1.31,10.13,2.26s12.39,0.24,20.03-0.47c7.62-0.72,15.96-10.37,18.35-13.42c2.39-3.03-0.6-11.37-1.3-15.19
							c-0.72-3.81-1.19-9.29-0.49-9.53c0.72-0.24,19.32,6.2,23.96,7.51c4.65,1.31,5.25,2.02,4.77,4.65
							c-0.47,2.62-25.03,17.52-29.08,19.66c-4.05,2.14-6.55,5.37-5,5.97s23.59-8.58,30.28-12.16c6.67-3.58,8.01-4.8,10.3-0.9
							c2.29,3.91,8.33,35.99,13.51,84.98C419.79,867.46,418.14,903.35,417.64,911.68z"/>
						<path style="fill:#13454A;" d="M384.89,877.49c-0.74,12.09-6.48,21.27-9.36,25.15c-1.53-0.41-3.06-0.84-4.57-1.29
							c3.21-4.99,7.37-14.39,9.43-23.36c2.74-11.97,0-72.31,0-72.31s-18.93,5.17-65.34,3.99c-46.55-1.19-76.54-7.55-81.79-9.65
							c-5.26-2.11-1.41-3.77,0-3.36c21.88,6.39,64.01,7.57,80.01,7.97c16,0.4,46.99-1.01,52.46-1.01c5.48,0,18.41-1.94,19.16-0.44
							C385.63,804.68,385.88,861.29,384.89,877.49z"/>
						<path style="fill:#F9F0E0;" d="M251.03,689.03c-0.92-8,3.83-15.13,7.08-24c3.24-8.87,7.14-21.2,9.3-40.45
							c2.16-19.25,3.89-34.83,15.79-40.02s28.12-7.57,35.91-3.68s11.9,8.87,14.93,20.77s15.14,81.12,19.47,99.51
							s7.57,24.66-1.08,30.07c-8.65,5.41-13.84,7.14-21.42,5.19c-7.57-1.95-13.63-4.76-19.69-3.03s-12.55,7.35-18.6,6.06
							c-6.06-1.3-12.33-4.11-11.03-11.68s4.76-25.09,4.54-27.26c-0.22-2.16-1.14-4.17-5.62-3.46
							C252.48,701.5,251.03,689.03,251.03,689.03z"/>
						<path style="fill:#E7D4C2;" d="M291.32,603.49c0,0-0.38-5.44,1.69-6.94s1.45-3.94-1.72-2.44s-9.92,4.5-10.86,28.53
							c-0.94,24.02,0.56,43.35-1.69,52.17s-6.57,20.27-6.57,20.27s14.45-0.38,15.39,1.31c0,0,4.13-24.21,5.07-36.03
							C293.57,648.53,287.74,621.16,291.32,603.49z"/>
						<path style="fill:#E7D4C2;" d="M306.27,593.64l6.56,6.83l10.06,16.39v30.17l-4.81,13.77l-14.67,5.13c0,0,3.42,4.02,0,4.76
							s-6.1,2.38-4.76,2.68s6.84,1.49,9.97,0s8.48-5.51,8.78-3.72c0.3,1.79,4.76,45.23,3.42,61c0,0,4.76,3.87,8.33,3.87
							s9.67-0.74,9.67-0.74s-13.69-62.19-12.94-62.19s17.41,12.05,22.62,18.3c0,0-2.68-23.81-5.21-27.38s-15.18-54.31-15.18-54.31
							S311.81,593.21,306.27,593.64z"/>
						<path style="fill:#D56E52;" d="M299.52,661.52c1.33-0.37-3.89,5.84-2.48,6.72s5,3.01,8.25,0.88
							c3.25-2.12,11.21-7.79,13.87-7.61c2.65,0.18,9.91-0.88,13.98,0.71s7.61,12.03,16.1,15.04c8.49,3.01,17.34,2.3,20.7,1.59
							c0,0,28.13,13.62,50.6,23.89c22.47,10.26,43.53,21.94,81.21,18.76c7.59-0.28,18.48-11.53,16.08-26.84l-21.4-0.95l-94.09-20.23
							l-50.79-13.01l-13.93-17.7l-0.15-31.31l-8.24-6.89l-23.95-5.09c0,0-27.59,11.39-27.59,14.53c0,3.15,3.3,6.89,8.54,5.54
							c5.24-1.35,18.43-7.94,23.22-7.49s9.44,0.75,10.49,3c0,0-10.57,1.85-15.78,3.78c-5.21,1.93-12.2,6.99-16.07,17.41
							c-3.87,10.41-1.93,12.05-0.6,12.35c1.34,0.3,3.87-0.45,5.65-0.3c1.79,0.15-4.02,9.78-1.64,12.18
							C293.91,662.89,295.31,662.69,299.52,661.52z"/>
						<path style="fill:#E18461;" d="M512.43,704.38c-29.7,9.5-47.79,3.68-91-9.37c-43.19-13.05-40.81-17.27-44.85-19.49
							c-4.04-2.2-6.25,0.74-15.25-0.73c-9.01-1.47-15.44-9.74-19.48-12.5c-4.05-2.75-8.28-3.68-17.47-4.04s-13.78,4.6-16.88,6.99
							c-3.09,2.39-6.27,3.49-8.67,0.73c-2.39-2.75,7.54-13.42,11.03-16.17c3.49-2.76,22.98-4.97,24.08-5.33
							c1.11-0.37,0.93-1.66,0-2.58c-0.91-0.91-21.68,3.31-24.81,4.24c-3.13,0.91-9.01,7.35-10.3,9.56c-1.28,2.2-3.86,6.99-6.06,1.28
							c-2.2-5.7,9.01-20.21,11.21-22.05c2.2-1.84,22.98-5.33,25.74-5.89c2.76-0.55,3.86-2.57,1.11-2.93
							c-2.76-0.37-24.64,5.33-27.57,5.88c-2.95,0.55-10.12,11.03-12.32,14.16c-2.2,3.12-3.31,1.28-4.04-2.22
							c-0.73-3.48,9.28-20.96,12.15-23.17c2.89-2.2,28.58-6.77,31.64-7.27c3.04-0.51,2.19-2.89,2.19-2.89
							c-6.77-0.17-13.52-1.69-23.34-1.52c-9.81,0.17-19.96,7.11-25.71,7.11s-3.07-4.33-1.72-6.37c0,0,20.8-12.59,29.27-13.27
							c5.88-0.47,28.96,4.42,35.06,6.25c6.1,1.84,14.96,17.76,24.06,28.4c9.08,10.63,16.45,10.23,34.9,13.05
							c18.46,2.81,42.08,4.3,42.08,4.3l-7.1-29.14l-2.18-8.96c10.27-1.24,28.82-4.65,44.67-10.76c1.87-0.72,3.69-1.42,5.43-2.09
							c7.19-2.74,12.59-4.76,16.4-6.34c0.09-0.02,0.17-0.06,0.24-0.1c0.37,1.47,0.74,3.07,1.14,4.76
							C513.86,628.65,528.59,699.22,512.43,704.38z"/>
						<path style="fill:#D16949;" d="M506.08,595.89c-26.99,14.58-61.67,22.61-65.7,23.5c-0.27,0.07-0.4,0.1-0.4,0.1l-2.45-8.97
							c0.22-0.02,0.44-0.06,0.67-0.09c10.27-1.24,28.82-4.65,44.67-10.76c1.87-0.72,3.69-1.42,5.43-2.09
							c7.19-2.74,12.59-4.76,16.4-6.34c0.09-0.02,0.17-0.06,0.24-0.1C505.3,592.6,505.68,594.2,506.08,595.89z"/>
						<path style="fill:#CE6449;" d="M447.35,645.48v3.49c0,0,26.39-0.31,34.98,5.78c8.59,6.09,8.98,6.52,9.86,5.65
							c0.88-0.88-3.58-4.46-6.21-5.85S473.57,645.71,447.35,645.48z"/>
						<path style="fill:#E4C8B7;" d="M241.16,478.35c0.05-3.02-3.14,9.78-7.93,24.16c-4.8,14.39-13.86,35.88-13.86,42.86l6.16-10.41
							c0,0,3.42-14.1,6.98-21.77C236.06,505.54,241.05,484.44,241.16,478.35z"/>
						<path style="fill:#E4C8B7;" d="M413.92,530.09c0,0,5.03-32.47,12.12-43.9s15.05-21.32,18.62-22.21c0,0,0-2.32-1.6-1.43
							s-15.68,11.22-21.74,27.97s-9.98,34.95-9.09,39.57H413.92z"/>
						<path style="fill:#DE765C;" d="M85.5,467.52c0,0-13.57-7.71-16.24-8.51c-2.66-0.8-10.52,1.33-10.52,8.26s5.06,8.52,9.45,9.06
							c4.39,0.53,12.92,7.19,13.58,9.32c0,0-12.12-0.8-12.78,5.06s0.4,7.59,2,8.79c0,0,0.8,0.93,0.4,1.6s-5.06,3.73-4.53,7.06
							s2.26,5.46,2.8,6.53c0.53,1.07,0.4,1.6-0.67,2.13s-5.99,3.99-4.13,8.26c1.86,4.26,6.53,12.52,13.45,14.78
							c0,0,0.93-6.13,2.26-5.99c1.33,0.13,8.66,2.4,11.05,0.27c2.4-2.13,3.86-5.06,2.93-6.26s-2-1.86-0.8-2
							c1.2-0.13,10.65,1.2,12.38-2.66s-0.53-7.99-7.59-11.05c0,0,5.86,0,7.46-3.46s2.13-7.06-3.46-10.65
							c-5.59-3.6-16.25-8.79-16.25-8.79L85.5,467.52z"/>
						<path style="fill:#E68660;" d="M68.98,460.44c-2.21-1.08-4.44,0.38-5.57,2.55c-1.13,2.17-3.5,6.61-1.32,8.32
							c2.17,1.7,4.06,2.74,5.95,0.66S74.18,463,68.98,460.44z"/>
						<path style="fill:#E58964;" d="M84.57,489.45c-3.94-1.77-9.17-3.31-10.87-1.7s-6.05,6.99-2.08,9.54
							c3.97,2.55,21.38,10.62,25.61,12c4.63,1.51,8.92-2.51,7.03-6.2S93.17,493.33,84.57,489.45z"/>
						<path style="fill:#E58964;" d="M76,503.92c-2.58-0.7-5.09-0.7-6,2.23c-0.91,2.93-2.32,6.33,4.24,9.02s18.99,8.15,23.66,9.02
							c5.04,0.94,6.21-2.46,6.21-3.75s-0.12-3.95-6.09-6.54C92.05,511.3,76,503.92,76,503.92z"/>
						<path style="fill:#E58964;" d="M75.06,517.79c-4.09-1-7.94,1.57-7.47,5.19s3.39,6.3,9.34,7.7s12.37,2.92,14.59,0
							c2.22-2.92,1.52-5.25-2.8-7C84.4,521.92,79.15,518.79,75.06,517.79z"/>
						<path style="fill:#FAF3E6;" d="M113.96,466.6c0,0-1.07-5.68,0-5.82c1.07-0.13,19.04,0,19.31-1.33s-1.34-13.02-8.92-20.24
							c-6.88-6.56-9.18-7.59-16.24-7.89c-7.06-0.29-39.42,0.46-39.42,0.46S70,448.36,70,449.13s4.09,3.06,4.09,3.06l21.35,10.87
							c0,0,0.93,1.38,0.8,3.55"/>
						<path style="fill:#1F5869;" d="M70.64,434.12c0,0,0.1-2.33-1.96-2.33c-2.71,0-12.74,0.34-13.03,3.05s0.28,13.43,1.04,14.02
							c1.51,1.17,11.08,1.82,12.51,1.82s1.39-0.14,1.48-2.57C70.79,445.68,70.64,434.12,70.64,434.12z"/>
						<rect x="59.8" y="437.88" style="fill:#3B8392;" width="2.35" height="8.73"/>
						<rect x="65.11" y="437.88" style="fill:#3B8392;" width="2.35" height="8.73"/>
						<path style="fill:#1F5869;" d="M73.33,450.67c0,0,1,12.6-0.34,15.94c-1.85,4.58-10.89,16.59-10.84,19.2
							c0.05,2.61,3.84,2.6,5.31,2.49s5.63-3.8,9.33-10.53c3.7-6.72,6.47-14.06,6.65-15.38c0.18-1.37,4.18-0.13,5.96,1.09
							c1.79,1.23,8.03,0.11,8.03,0.11S87.02,449.57,73.33,450.67z"/>
						<path style="fill:#E18C68;" d="M143.71,539.46c0,0-13.23,0.85-16.07-12.66c-2.84-13.51-2.42-21.62-2.99-22.19
							s-16.5-11.81-17.64-18.35s1.56-7.82,2.84-7.4c1.28,0.43,18.63,10.67,21.9,13.37c3.27,2.7,9,7.96,11.95,18.77
							C147.44,524.71,143.71,539.46,143.71,539.46z"/>
						<path style="fill:#DF8662;" d="M144.18,542.13c0,0-7.07,5.08-6.89,7.86s5,19.99,5.92,36.65c0.93,16.66,2.41,40.53,5.55,51.08
							c3.15,10.55,14.44,35.17,28.5,47.38c14.07,12.22,22.95,9.99,26.1,8.14c3.15-1.85,15.92-13.88,13.88-30.17
							s-3.63-23.38-27.39-54.97C165.18,575.3,146.4,546.47,144.18,542.13z"/>
						<path style="fill:#F5E7D2;" d="M433.95,735.96c0,0,21.08,34.5,23.69,35.19c2.6,0.68,9.99-2.6,9.86-4.11
							C467.35,765.53,448.46,742.4,433.95,735.96z"/>
						<path style="fill:#3C1C17;" d="M566.44,292.67c-3.47,1.83-18.8,12.05-18.98,29.94c-0.18,17.89,10.04,40.52,29.94,46.55
							s36.14-2.37,36.14-2.37l-1.46-43.81l-15.7-37.79L566.44,292.67z"/>
						<path style="fill:#C86E56;" d="M610.43,326.99c0,0-0.18,53.85-2.19,57.14s-4.75,4.93-4.75,4.93s2.19,22.82,8.21,29.02
							c6.02,6.21,31.76,33.22,58.6,39.25c26.83,6.02,28.84-16.79,27.56-27.93c-1.28-11.14-6.21-30.3-6.21-30.3s-4.77-3.96-8.26-5.08
							s-4.83-2.02-4.83-2.02l-0.11-32.59L610.43,326.99z"/>
						<path style="fill:#B14D3E;" d="M613.28,329.73c0,0-1.75,7.04,2.19,16.3c3,7.04,20.27,25.6,39.02,34.48
							c15.55,7.36,22.57,3.76,22.57,3.76V360.6L613.28,329.73z"/>
						<path style="fill:#C96F53;" d="M561.49,255.43c0,0-0.44,5.78-1.11,9.34s-2,14.01,2.45,22.91s10.23,16.01,15.12,18.68
							c4.89,2.67,9.34,4,12.46,2c3.11-2,4.23-4,5.34-3.56s3.11,8.01,5.78,13.12s6.01,10.23,11.12,15.57s32.69,28.91,58.72,32.25
							c26.02,3.34,48.26-37.59,50.93-44.93s6.23-10.9,7.34-42.93s3.56-44.04,0-58.05s-13.34-30.75-19.35-34.28
							c-6.01-3.53-91.86,17.6-91.86,17.6L561.49,255.43z"/>
						<path style="fill:#B65344;" d="M609.23,240.33c0,0,72.95-26.24,93.19-22.46s28.25,12.23,28.25,12.23s-2.68-33.45-18.68-42.26
							s-80.96,10.23-80.96,10.23L609.23,240.33z"/>
						<path style="fill:#3C1C17;" d="M594.39,270.05c0,0,0.36-7.28,5.82-13.28s23.65-30.56,23.65-40.2l-49.66-2
							c0,0-17.1,16.74-16.92,23.83s1.09,25.47,3.09,26.2c0,0,3.91-11.48,14.75-10.15c10.84,1.32,16.27,11.65,17.46,15.61h1.81
							L594.39,270.05L594.39,270.05z"/>
						<path style="fill:#562B23;" d="M559.83,241.51l0.76,17.17c0,0,7.14-6.68,16.41-4.25s7.75,5.16,14.58,2.89
							c6.84-2.28,19.14-16.71,19.14-18.08s-4.56-3.95-5.92-3.8c-1.37,0.15-14.89,18.16-24.32,18.03c0,0,19.75-14.07,21.17-19.75
							c0,0-5.25-5.42-16.37-2.97C574.15,233.2,561.9,237.55,559.83,241.51z"/>
						<path style="fill:#331810;" d="M616.69,240.22c0,0,10.39-6.79,22.77-5.59s23.08,5.31,26.61,4.09c3.53-1.23,4.3-4.45-0.92-6.45
							s-18.27-6.14-27.17-4.14S619.81,235.43,616.69,240.22z"/>
						<path style="fill:#331810;" d="M699.54,234.41c-1.57,1.18-2.92,3.38-1.84,5.07c1.07,1.69,3.84,1.69,6.45,0.77
							s14.28-5.83,18.27-4.45s13.05,6.14,13.05,6.14s-3.53-7.83-10.44-10.13S708.29,227.81,699.54,234.41z"/>
						<path style="fill:#FDFCFC;" d="M622.36,257.76c0,0,6.16,11.27,13.4,13.29c7.02,1.95,23.29,2.88,26.91-2.21
							c2.43-3.42-1.93-6.74-3.21-9.31s-12.2-8.83-12.2-8.83l-22.16,3.37L622.36,257.76z"/>
						<path style="fill:#B34B35;" d="M697.45,243.68c0,0-10.65,9.98-9.29,22.03c1.59,14.07,7.55,24.81,7.7,29.2
							s-6.03,9.44-9.92,8.02c-3.89-1.42-3.01-4.08-8.81-3.75c-2.84,0.16-10.05,1.98-9.1-6.51c0,0-1.01,1.8-0.82,4.04
							c0.28,3.37,0.82,5.55,10.01,4.92c9.19-0.63,3.72,3.88,9.09,4.09c5.37,0.21,13.1-6.06,12.05-11.07S681.29,261.27,697.45,243.68
							z"/>
						<path style="fill:#FDFCFC;" d="M704.9,270.6c0,0,5.62,3.85,13.65,0s7.55-9.47,7.07-11.08s-6.1-7.87-6.1-7.87h-6.1l-9.15,2.57
							L704.9,270.6z"/>
						<path style="fill:#371814;" d="M617.9,254.89c2.18,0.17,5.19,0.17,7.37-1.67s10.71-7.03,18.08-5.02s16.69,7.81,19.44,15.31
							l0.61,2.21c-1.34-0.17-11.84-14.34-16.53-12.16c0,0,3.06,4.47,2.34,9.21c-0.52,3.48-4.46,10.36-12.05,8.2
							c-7-1.99-9.88-8.03-7.37-15.4c0,0-4.35,4.16-6.86,4.09S617.9,254.89,617.9,254.89z"/>
						<circle style="fill:#FAFBF8;" cx="641.2" cy="258.08" r="2.8"/>
						<path style="fill:#39160F;" d="M730.95,256.68c-1.96-0.14-3.77-0.56-5.17-2.24c-1.4-1.68-6.01-6.85-12.72-5.31
							s-16.36,6.01-15.66,15.24s8.67,8.53,11.6,6.99c2.94-1.54,6.09-5.87,6.29-9.37c0.41-7.05-3.77-8.25-3.77-8.25
							s6.15-1.54,8.11,0.14s4.61,4.75,6.99,5.17C728.99,259.48,730.95,256.68,730.95,256.68z"/>
						<path style="fill:#C25F47;" d="M647.07,312.57c0,0,12.01,26.62,29.66,27.55c17.65,0.93,22.43-14.73,23.49-21.9l-1.06-2.52
							L647.07,312.57z"/>
						<path style="fill:#5B2117;" d="M646.8,312.38c0,0,11.87,17.07,34.18,17.12c13.54,0.03,21.81-14.01,21.81-14.01L646.8,312.38z"
							/>
						<path style="fill:#FBFAFA;" d="M651.39,313.44c0,0,5.69,11.56,20.17,13.54c12.6,1.72,15.65,0.27,18.09-0.61
							c2.67-0.97,7.3-7.02,7.89-9.66L651.39,313.44z"/>
						<path style="fill:#B5503C;" d="M565.63,268.98c-0.47,1.65-1.18,2.94,0,3.06s3.53-5.76,8.46-3.64c4.94,2.12,9.4,6.35,9.64,7.41
							s-8.33-2.4-8.33,7.28s4,12.08,7.35,13.35c3.35,1.28,7.18-4.15,12.28,5.1c0,0,2.07-2.07,0-6.06s-4.62-8.24-4.94-10.74
							s0.96-6.26-1.91-10.04s-10.84-12.87-16.27-10.8S565.63,268.98,565.63,268.98z"/>
						<path style="fill:#C96F53;" d="M584.73,277.97c-2.21-0.17-7.74,1.4-6.85,6.98c0.89,5.58,2.16,8.75,4.31,8.75
							s3.3-3.17,5.96-2.03c2.66,1.14,3.81,2.03,3.81,2.03s-0.18-4.55-2.3-6.04C587.54,286.17,588.63,278.27,584.73,277.97z"/>
						<g>
							<polygon style="fill:#FCFDF8;" points="595.08,301.28 590.54,303.3 591.06,308.25 587.04,305.33 583.01,308.25 583.53,303.3 
								578.99,301.28 583.53,299.26 583.01,294.31 587.04,297.23 591.06,294.31 590.54,299.26 							"/>
						</g>
						<path style="fill:#ECDDD0;" d="M559.13,722.83c0,0-23.04,42.54-21.91,44.47c1.13,1.93,9.14,6.84,10.94,6.32
							C549.95,773.1,559.78,724.44,559.13,722.83z"/>
						<path style="fill:#ECDDD0;" d="M556.23,715.74c-0.64-0.16-8.86,4.83-20.62,15.79c-11.76,10.96-15.15,17.4-14.82,17.89
							c0.32,0.48,7.73,4.51,10.63,2.26C534.32,749.41,556.23,715.74,556.23,715.74z"/>
						<path style="fill:#1D626A;" d="M603.66,384.57c0,0-9.16,4.95-9.41,9.41s-1.98,7.18,3.22,33.93
							c5.2,26.74,14.61,58.19,15.85,79.74c1.24,21.54,0.99,47.3,0,50.77c0,0,8.91,7.68,24.27,7.43s52.5-3.22,77.26-3.71
							c24.76-0.5,45.32,0.25,54.98-1.98s11.39-5.7,11.39-5.7s0.5-19.81-4.46-31.2c-4.95-11.39-36.16-67.11-45.07-78.75
							c-8.91-11.64-32.94-50.02-46.56-54.48c0,0,23.77,28.23,38.38,56.46c14.61,28.23,22.04,42.1,17.83,42.1
							s-104.75,5.94-107.23,5.45s-19.81-51.01-23.77-68.35C606.39,408.34,600.58,391.47,603.66,384.57z"/>
						<path style="fill:#C77159;" d="M775.73,603.21c0,0-7.36,30.52-6.9,57.13c0,0,18.3-0.19,19.11,0s9.12-31.59,9.12-31.59
							S776.9,614.28,775.73,603.21z"/>
						<path style="fill:#1D626A;" d="M636.47,651.42c0.49-0.73,2.92-11.44,14.6-19.23s50.46-28.36,73.01-24.34
							c21.32,3.8,23.73,6.24,33.1,11.93c3.8,2.3,7.54,3.41,7.54,3.41s-0.01,33.92,0,37.76c0,0-32.49,15.78-38.48,14.97
							S636.47,651.42,636.47,651.42z"/>
						<path style="fill:#DFC6AA;" d="M783.88,666.91c-5.08,0.31-11.74,0.5-11.86,1.88s6.78,2.78,11.11,2.59
							C783.19,670.94,783.88,666.91,783.88,666.91z"/>
						<path style="fill:#DDC5AF;" d="M545.37,430.21c0,0,20.98,13.21,26.81,40.41s6.02,30.12,6.02,30.12s3.3,2.14,2.72-1.17
							C580.34,496.27,571.99,437.01,545.37,430.21z"/>
						<path style="fill:#DFC1A9;" d="M751.37,443.36c0,0,6.43,22.09,9.51,28.52s9.43,26.56,10.62,29.54
							c1.18,2.96-1.92-1.94-1.92-1.94S750.95,459.85,751.37,443.36z"/>
						<path style="fill:#1D626A;" d="M555.17,234.92c0.25,4.4,0.87,4.59,3.16,3.06s29.53-20.88,34.37-19.09s28.26,8.91,40.74,3.82
							s61.87-35.9,78.42-34.12c16.55,1.78,29.53,20.37,32.33,38.19c0,0,15.53,5.35,28.52,2.55c12.98-2.8,10.95-15.28,7.13-19.86
							s-7.89-17.06-47.36-26.99c0,0-10.18-34.37-27.75-44.81s-38.7-20.11-59.58-16.8s-30.81,7.38-39.21,10.69
							s-26.99,14.51-35.39,25.97s-13.57,18.66-14.95,33.94C554.22,206.75,555.17,234.92,555.17,234.92z"/>
						<path style="fill:#15484B;" d="M729.2,181.12c0,0-6.3-5.86-46.67-4.34c-46.24,1.74-89.83,42.11-89.83,42.11
							s0.61-26.7-0.04-50.36s14.41-37.42,15.67-37.91s-0.99,2.25-2.95,4.64s-12.19,16.49-10.93,35.48s0.46,43.06,0.46,43.06
							s34.81-34.59,86.9-38.95C712.97,172.25,730.99,180.34,729.2,181.12z"/>
						<path style="fill:#BB563B;" d="M646.8,312.38c0,0,56.87,0,55.99,3.1c-1.32,1.69-19.74,2.11-26.72,1.8
							S651.14,315.64,646.8,312.38z"/>
						<path style="fill:#1D626A;" d="M760.27,767.43l-2.34,9.3l-1.11,4.38l-11.09,44.04c-37.85,31.27-77.32,51.47-111.91,64.48
							c-0.01,0-0.01,0-0.01,0c-1.78,0.68-3.54,1.33-5.28,1.96c-24.52,8.85-46.35,14.1-63.06,17.19
							c-0.35-18.13-0.13-51.58,4.36-89.73c6.77-57.36,12.25-77.01,17.41-77.01s36.09,4.99,76.69,6.2
							c40.61,1.22,45.66,2.05,50.05,4.1C718.34,754.41,740.11,766.54,760.27,767.43z"/>
						<g>
							<path style="fill:#DAD1C6;" d="M972.32,368.2c0.23,5-4.13,7.99-7.21,5.49c-3.24-2.64-7.09-7.9-7.9-18.84
								c0,0-3.24,4.26-2.63,23.3c0.01,0.46,0.02,0.9,0.04,1.33v0.01c0.01,0.71,0.02,1.36,0.01,1.98c-0.02,15.3-4.3,12.25-7.15,10.79
								c-2.31-1.19-3.99-4.19-4.65-5.54c-0.21-0.41-0.32-0.67-0.32-0.67s1.33,11.94-1.3,13.16c-2.48,1.14-9.4,2.82-10.91-6
								c-0.11-0.58-0.18-1.22-0.23-1.9c-0.82-10.93-1.83-12.55-3.25-12.36c0,0,0.47,4.59-0.51,7.78c-0.57,1.92-1.69,3.34-3.74,2.96
								c-5.47-1.01-8.3-3.64-6.48-24.51c0.95-10.94,4.41-25.56,7.57-37.86c2.89-11.16,5.5-20.42,5.79-23.31
								c0.61-6.07,3.64-22.28,1.41-26.12c-0.26-0.45-0.51-0.91-0.78-1.41c-2-3.73-4.37-8.56-11.18-11.95c0,0-29.45-11.3-38.61-11.14
								h-0.06c-9.12,0.21-22.29,2.84-22.48,16.6c-0.06,3.66-0.15,7.52-0.26,11.72v0.04c-0.29,11.58-0.78,25.7-1.36,45.15
								c-0.82,26.54,0,46.19-6.89,47.81c-4.74,1.11-6.79,0.69-7.67-0.06c-0.4-0.35-0.57-0.78-0.63-1.16
								c-0.21-1.22-1.42-5.47-2.43-5.26c-1.01,0.19-4.86,14.17-9.11,13.77c-0.28-0.02-0.57-0.06-0.86-0.11
								c-4.21-0.63-9.71-3.23-7.45-10.42c0-0.01,0-0.01,0.01-0.02v-0.01c2.42-7.67,2.42-7.67,2.42-7.67s-6.89,1.42-9.12-2.23
								c-0.32-0.52-0.68-0.91-1.06-1.21c-2.24-1.74-5.15-0.21-4.81-5.06c0.18-2.73,0.85-5.41,1.58-7.79
								c0.78-2.58,1.64-4.81,2.06-6.39c0.82-3.04,0.41-4.25,1.02-8.7c0.6-4.46,2.42-8.11,1.01-8.51c-1.42-0.4-4.05,10.74-7.71,10.32
								c-0.35-0.04-0.73-0.07-1.1-0.11c-3.4-0.37-7.02-0.99-5.38-7.09c1.83-6.78,10.13-26.62,16.6-58.42
								c6.49-31.8,34.84-52.26,56.51-48.61c21.68,3.64,39.56,8.1,39.56,8.1c12.7,2.43,40.76,15.42,49.69,30.25
								c12.7,21.06,9.8,37.81,8.91,72.37c-0.54,20.93,0.16,31.26,0.93,36.73C972.28,367.68,972.31,367.95,972.32,368.2z"/>
							<path style="fill:#BAAA9E;" d="M883.82,234.24c-1.07-0.17-18.38-4.85-30.07,1.61c-11.67,6.45-22.92,23.32-30.29,62.05
								c-5.9,31.09-10.27,44.9-13.33,49.57c0.78-2.58,1.64-4.81,2.06-6.39c0.82-3.04,0.41-4.25,1.02-8.7
								c0.6-4.46,2.42-8.11,1.01-8.51c-1.42-0.4-4.05,10.74-7.71,10.32c-0.35-0.04-0.73-0.07-1.1-0.11
								c1.42-4.44,5.97-9.53,7.23-15.42c1.3-6.05,6.27-28.77,9.3-41.52c3.03-12.77,17.31-57.31,61.87-47.37
								C883.82,229.76,884.9,234.41,883.82,234.24z"/>
							<path style="fill:#BAAA9E;" d="M882.09,241.94v4.54c0,0-17.74-3.37-24.44,3.58c-6.71,6.95-15.57,11.27-19.9,41.13
								c-3.9,26.87-8.49,69.86-16.63,80.24c2.42-7.67,2.42-7.67,2.42-7.67s-6.89,1.42-9.12-2.23c-0.32-0.52-0.68-0.91-1.06-1.21
								c5.09-6.48,12.33-21.11,15.73-44.04c3.9-26.17,7.15-58.69,30.95-72.6C870.71,238.42,882.09,241.94,882.09,241.94z"/>
							<path style="fill:#BAAA9E;" d="M880.58,250.06v3.27c0,0-0.1,0.01-0.27,0.05h-0.06c-9.12,0.21-22.29,2.84-22.48,16.6
								c-0.06,3.66-0.15,7.52-0.26,11.72v0.04c-1.66,10.51-3.32,21.73-3.32,23.97c0,0-0.86-13.88-2.59-12.15
								c-1.74,1.73-1.3,7.41-1.74,12.15c-0.43,4.72-4.27,39.33-5.05,50.16c-0.61,8.47-1.94,15.36-3.21,18.77
								c-0.4-0.35-0.57-0.78-0.63-1.16c-0.21-1.22-1.42-5.47-2.43-5.26c-1.01,0.19-4.86,14.17-9.11,13.77
								c-0.28-0.02-0.57-0.06-0.86-0.11c1.68-2.93,3.42-6.45,4.87-10.45c4.32-11.89,8.91-22.05,11.38-50.51
								C847.26,292.48,848.56,243.75,880.58,250.06z"/>
							<path style="fill:#BAAA9E;" d="M972.32,368.2c0.23,5-4.13,7.99-7.21,5.49c-3.24-2.64-7.09-7.9-7.9-18.84
								c0,0-3.24,4.26-2.63,23.3c0.01,0.46,0.02,0.9,0.04,1.33c-0.32-0.88-0.62-1.83-0.93-2.84c-3.9-12.98,7.35-78.74,1.3-101.08
								c-6.06-22.34-28.75-31.1-28.75-31.1v-1.51c49.97,14.39,33.94,93.02,35.02,108.81c1.08,15.8,7.79,16.87,11.03,16.45
								C972.31,368.2,972.31,368.2,972.32,368.2z"/>
							<path style="fill:#BAAA9E;" d="M954.63,381.47c-0.02,15.3-4.3,12.25-7.15,10.79c-2.31-1.19-3.99-4.19-4.65-5.54
								c-1.68-21.84,4.1-62.41,3.07-87.31c-1.29-31.37-22.7-44.57-22.7-44.57v-1.29c13.84,7.13,21.41,18.38,25.31,40.01
								s0.21,77.23,1.49,82.63C950.57,378.59,952.56,380.3,954.63,381.47z"/>
							<path style="fill:#BAAA9E;" d="M933.36,352.62c-2.68,15.64-3.02,36-3.06,40.59c-0.11-0.58-0.18-1.22-0.23-1.9
								c-0.82-10.93-1.83-12.55-3.25-12.36c0,0,0.47,4.59-0.51,7.78c-0.44-20.52,5.05-52.09,7.05-62.23c2.37-12.11,0-32.22,0-32.22
								c-0.61,7.17-5.19,21.82-9.69,35.05c2.89-11.16,5.5-20.42,5.79-23.31c0.61-6.07,3.64-22.28,1.41-26.12
								c-0.26-0.45-0.51-0.91-0.78-1.41c-1.35-9.18-8.85-15.91-8.85-15.91v-1.39c12.54,6.91,14.92,17.52,18.16,37.13
								C942.66,315.92,936.4,334.88,933.36,352.62z"/>
						</g>
						<g>
							<path style="fill:#8E7F7D;" d="M896.19,318.12L780.54,773.64c-0.97-6.34-1.67-13.16-1.03-17.36
								c0.73-4.88-3.38-23.07-7.47-42.72l10.13-38.98l41.16-158.31l52.14-200.52L896.19,318.12z"/>
							<path style="fill:#A79995;" d="M875.17,326.36c0,0,9.51,1.23,9.13,3.14s-29.73,115.52-29.73,115.52s-9.65-1.78-10.6-1.65
								C843.01,443.49,875.17,326.36,875.17,326.36z"/>
							<path style="fill:#A79995;" d="M835.28,520.89c-0.26,2.9-40.45,161.28-40.45,161.28l-12.67-7.58l41.16-158.31
								C827.99,517.16,835.46,518.9,835.28,520.89z"/>
						</g>
						<path style="fill:#13454A;" d="M758.49,776.62l-1.49,4.46c0,0-0.06,0.01-0.18,0.04c-2.84,0.47-39.02,6.51-62.09,7.07
							c-24.02,0.6-84.22-2.67-84.22-2.67s-3.26,72.06,4.44,83.62c5.66,8.5,9.08,16.19,18.84,20.5c-1.78,0.68-3.54,1.33-5.28,1.96
							c-5.56-3.52-20.05-14.13-20.85-30.17c-1.01-19.87-0.45-75.88-0.45-75.88c-0.12-4.15,3.29-3.9,7.44-3.59
							c4.16,0.29,32.63,5.19,79.48,1.7c42.07-3.13,60.47-6.32,63.79-6.94C758.31,776.65,758.49,776.62,758.49,776.62z"/>
						<path style="fill:#244064;" d="M890.62,266.19c0,0-2.96,15.58-3.99,15.73c-1.03,0.15-4.59-0.75-5.42,1.7
							c-1.52,4.52-9.17,33.88-9.45,35.19c-0.69,3.22,23.12,11.3,24.8,7.58c0.51-1.12,8.2-33.89,8.69-35.61
							c0.76-2.69-3.61-3.25-3.76-4.29s5.23-15.95,5.23-15.95L890.62,266.19z"/>
						<path style="fill:#2E4B77;" d="M887.54,224.21c0-2.84,1.82-4.46,4.46-3.44c2.63,1.01,35.24,11.34,36.46,11.95
							s0,1.39-1.82,3.13s-6.68,13.48-6.68,17.33c0,3.85-3.85,10.94-0.2,12.96c3.65,2.03,10.33,9.32,10.53,10.73
							c0.2,1.42-0.81,2.78-0.81,2.78l-66.64-19.09c0,0,4.34-8.81,16.41-6.17C885.71,255.81,887.54,224.21,887.54,224.21z"/>
						<path style="fill:#598CBB;" d="M924.88,232.94c0,0-3.26,5.45-5.65,11.78l-30.09-8.45c0.97-5.43,1.74-10.92,1.25-12.4
							L924.88,232.94z"/>
						<path style="fill:#4D79A7;" d="M919.23,244.73c-1.41,3.73-2.51,7.75-2.46,11.16l-30.08-7.28c0,0,1.35-6.12,2.45-12.33
							L919.23,244.73z"/>
						<path style="fill:#395C80;" d="M887.02,246.48c0,0-1.87,9.95-4.76,10.53c-2.88,0.58-16.15,1.01-16.15,2.02
							s25.62,8.21,25.62,8.21s-2.98,13.85-3.85,14.72s12.69,3.96,12.69,3.96l4.53-14.18c0,0,17.88,3.69,20.69,4.73
							s-8.13-5.17-9.46-8.27s0.89-18.12,0.89-18.12L887.02,246.48z"/>
						<path style="fill:#DFC6AA;" d="M625.03,651.04c-5.28-0.68-7.15,2.73-11.41,17.37s-7.15,36.79-5.45,53.14
							c0.68,8.8,6.98,4.77,13.63,5.45s91.8-0.68,93.33-1.02s0.34-2.55,3.58-1.19s19.59,10.56,26.4,11.92s23.16,1.02,29.98,1.7
							c6.81,0.68,13.46,3.07,14.82,4.6s11.14,1.08,13.97-5.45c2.21-5.11-1.19-8-1.19-8s8.35,0.68,8.35-10.05l-2.73-3.92
							c0,0,8.35-1.19,9.03-6.3c0.68-5.11-2.9-7.49-2.9-7.49l-0.51-1.87c0,0,7.49-4.09,7.32-8.35c-0.17-4.26-2.9-7.32-2.9-7.32
							l-4.6-3.92c0,0,10.22-4.6,9.54-8.52c-0.68-3.92-4.19-7.02-15.43-5.83l-2.59,10.28l-10.78,9.16l-8.02,28.93l-68.38-9.96
							L625.03,651.04z"/>
						<path style="fill:#F8E5CF;" d="M619.72,653.63c0,0-4.48,9.62-2.25,7.39s5.06-6.08,4.86-4.05s-6.47,20.66-6.88,31.6
							s-2.23,18.23,1.62,18.84c3.85,0.61,85.88,8.33,95.6,8.33c5.06,0,1.82-5.09,7.29-3.88s1.05,4.58,11.14,9.72
							c9.92,5.06,13.77,8.51,30.79,9.92c17.01,1.42,19.85,1.82,25.72,4.05s12.36,4.25,14.38,1.22s2.23-5.87-1.01-8.1
							s-11.75-8.1-11.54-10.53c0.2-2.43,6.08,2.63,8.1,3.65c2.03,1.01,6.89,5.67,10.33,2.23s4.05-5.47,0-9.11
							c-4.05-3.65-14.18-11.34-13.98-12.96s4.05,1.42,6.68,2.84c2.63,1.42,9.11,7.49,11.54,6.89c2.43-0.61,6.08-4.05,3.85-8.1
							c-2.23-4.05-19.85-16.41-18.84-18.03c1.01-1.62,18.03,7.7,20.86,5.67c2.84-2.03,2.43-9.52-4.25-11.95s-25.12-9.11-33.22-8.1
							c-8.1,1.01-9.72-2.43-7.49-2.63s10.53-1.42,10.53-1.42l1.22-4.46c0,0-13.17-1.62-27.95,4.66
							c-14.79,6.28-29.17,13.17-31.6,12.36s-96.29-28.26-100.2-28.61C620.89,650.67,619.72,653.63,619.72,653.63z"/>
						<path style="fill:#E3CAB2;" d="M824.71,509.51c0,0,19.35,1.53,21.22,5.43c1.87,3.9,2.04,4.75,2.04,4.75l12.22-11.88
							l-36.88-8.32L824.71,509.51z"/>
						<path style="fill:#F7E7D1;" d="M823.38,447.96c0,0-1.82-15.41,5.14-15.41s6.82,9.27,6.3,10.81c-0.66,1.94-1.98,5.09-5.55,5.42
							C825.7,449.12,823.38,447.96,823.38,447.96z"/>
						<path style="fill:#F7E7D1;" d="M826.53,451.77c-3.48,0.33-7.45,2.98-6.46,5.47c0.99,2.48,2.48,4.14,9.77,3.15
							c7.29-0.99,19.88-5.47,23.03-3.15s15.74,10.93,15.57,11.43s-0.83,1.82-3.48,0.99c-2.65-0.83-17.23-7.95-24.68-6.3
							c-7.45,1.66-20.99,8.82-22.2,11.93c-1.16,2.98,0.66,7.12,4.64,5.47c0,0,14.58-5.63,17.06-5.47s20.38,4.73,20.87,5.85
							c0.5,1.11,1.49,3.27,0.33,2.77s-19.55-4.47-22.86-3.98s-20.38,4.8-21.2,6.46c-0.83,1.66-1.99,5.3,0,6.63s9.61-0.17,12.26-0.83
							s17.56-1.82,25.35,3.81c3.98,3.64-4.97,1.66-8.95,0.83c-3.98-0.83-19.05-2.22-24.68,1.29s-2.65,6-0.5,6.83
							s15.41,0.33,18.06,1.16c2.65,0.83,17.23,7.45,16.4,9.28s-4.8,6.3-4.8,7.45s8.61,2.98,13.92-1.49
							c5.3-4.47,12.59-12.09,15.57-25.68c2.98-13.58,4.64-25.01,2.65-27.83s-7.12-9.77-14.25-13.58
							c-7.12-3.81-10.67-7.72-16.39-7.85C844.85,446.26,826.53,451.77,826.53,451.77z"/>
						<path style="fill:#562B23;" d="M561.51,299.25c0,0-11.87,9.13-12.05,24.83c-0.18,15.7,12.23,26.47,23.91,25.01
							s7.67-14.79,4.93-18.62C575.56,326.63,562.24,307.28,561.51,299.25z"/>
						<circle style="fill:#FAFBF8;" cx="708" cy="259.55" r="2.8"/>
						<g>
							<path style="fill:#F4F8F7;" d="M407.08,339.89c0,0.77-2.08,1.13-2.36,1.8c-0.29,0.7,0.92,2.42,0.39,2.94
								c-0.53,0.53-2.24-0.68-2.94-0.39c-0.67,0.28-1.03,2.36-1.8,2.36s-1.13-2.08-1.8-2.36c-0.7-0.29-2.42,0.92-2.94,0.39
								c-0.53-0.53,0.68-2.24,0.39-2.94c-0.28-0.67-2.36-1.03-2.36-1.8s2.08-1.13,2.36-1.8c0.29-0.7-0.92-2.42-0.39-2.94
								c0.53-0.53,2.24,0.68,2.94,0.39c0.67-0.28,1.03-2.36,1.8-2.36s1.13,2.08,1.8,2.36c0.7,0.29,2.42-0.92,2.94-0.39
								c0.53,0.53-0.68,2.24-0.39,2.94C405,338.76,407.08,339.12,407.08,339.89z"/>
						</g>
						<g style="opacity:0.9;">
							<g>
								<g>
									<path style="fill:#FFFFFF;" d="M323.41,188.3c-0.01,0.01-0.01,0.02-0.01,0.02c-0.14,0.28-0.32,0.53-0.53,0.76
										c0,0.01-0.01,0.01-0.01,0.02c-0.15,0.16-0.3,0.3-0.46,0.43c-0.25,0.21-0.53,0.39-0.82,0.55c-0.2,0.11-0.4,0.2-0.62,0.28
										c-0.75,0.27-1.55,0.36-2.3,0.22v0.01c-0.08,0.07-0.16,0.14-0.24,0.22c-0.05,0.05-0.11,0.1-0.16,0.15
										c-0.4,0.37-0.81,0.75-1.26,1.12c-0.45,0.38-0.93,0.75-1.46,1.09c-0.21,0.14-0.43,0.26-0.65,0.38
										c-2.13,1.04-4.71,1.14-6.9,0.28c-0.75-0.3-1.45-0.71-2.07-1.24c-0.32-0.27-0.62-0.57-0.89-0.9l-0.28-0.39
										c0,0,0.05-0.02,0.13-0.05c0.08-0.03,0.21-0.09,0.36-0.16c0.09-0.04,0.19-0.08,0.29-0.13c0.24-0.11,0.52-0.24,0.78-0.35
										c0.45-0.21,0.88-0.42,1.12-0.56c4.35-2.6,4.83-3.69,7.81-4.18l0.02,0.07c-3.02,0.56-4.43,3.53-7.67,5.7
										c-0.25,0.17-0.51,0.33-0.78,0.49c2.15,1.45,5.17,1.51,7.46,0.29c0.42-0.22,0.81-0.5,1.16-0.8
										c0.95-0.81,1.74-1.82,2.68-2.66c0.58-0.52,1.23-0.98,2.03-1.26c0.94-0.3,1.96-0.02,2.78,0.34c0.08-0.41-0.18-0.7-0.47-0.97
										c-0.06-0.05-0.14-0.1-0.21-0.15c-1.26-0.88-2.92-1.13-4.46-1.32l-0.36-0.04c-3.98-8.86-15.28-4.5-16.2,4.16
										c-0.07,0.68-0.15,1.53-0.2,2.33c1.02-0.03,1.8-0.23,2.86-0.5l0.49,0.67c0.21,0.26,0.44,0.51,0.7,0.75
										c-0.21,0.08-0.44,0.17-0.66,0.25l-0.33,3.83c0.83-0.48,1.66-0.87,2.47-1.18l1.27-0.46l1.5,2.5l-0.49,0.54
										c-0.32,0.39-0.63,0.86-0.89,1.45c-0.18,0.42-0.3,0.85-0.34,1.33c-0.02,0.26-0.03,0.51-0.01,0.76
										c0.03,0.81,0.33,1.67,0.87,2.56l-1.69-0.15l-0.33-0.72c-0.25-0.49-0.41-1.1-0.51-1.84c-0.04-0.44-0.06-0.9-0.01-1.41
										c0.03-0.37,0.08-0.74,0.17-1.14c-0.65,0.48-1.46,1.3-2.41,2.46l-2.35-1.98l0.51-5.96c-0.22,0.03-0.72,0.09-0.97,0.11
										c-0.19,1.89-0.85,9.88-0.85,9.88l-2.51-0.22c0.01-0.12,1.1-13.33,1.15-13.92c0.32-3.81,1.98-6.48,4.21-8.1
										c0.7-0.47,1.9-1.08,2.07-1.15c4.79-1.95,10.85-0.11,12.7,4.87c3.31,0.2,5.2,1.11,5.73,2.04
										C323.55,187.67,323.57,188.01,323.41,188.3z"/>
									<path style="fill:#FFFFFF;" d="M318.3,193.72l0.16-1.82c-0.73,0.67-1.54,1.38-2.51,1.99c-0.09,0.06-0.18,0.12-0.28,0.17
										l-0.52,6.07c-0.37-0.36-0.73-0.66-1.1-0.91c-0.08-0.06-0.15-0.1-0.23-0.15c-0.44-0.26-0.89-0.46-1.33-0.57
										c-0.04-0.01-0.07-0.01-0.11-0.02c-0.07-0.02-0.14-0.03-0.21-0.04c-0.01,0-0.03-0.01-0.04,0c-0.1-0.02-0.2-0.02-0.31-0.03
										c-0.16-0.01-0.32-0.02-0.47-0.01c-0.11,0.01-0.22,0.01-0.33,0.03c-0.07,0-0.13,0.01-0.2,0.03
										c-0.11,0.02-0.23,0.05-0.35,0.08c-0.15,0.05-0.31,0.11-0.46,0.18c-0.35,0.18-0.66,0.42-0.84,0.75
										c-0.21,0.3-0.34,0.66-0.37,1.01c-0.04,0.51,0.1,0.98,0.39,1.39c0.32,0.42,0.79,0.7,1.4,0.81c0.11,0.03,0.21,0.04,0.31,0.05
										c0.44,0.04,0.8-0.01,1.14-0.17c0.31-0.15,0.57-0.33,0.76-0.55c0.18-0.21,0.4-0.51,0.62-0.94c0.67,0.11,1.22,0.35,1.68,0.78
										c0.45,0.41,0.84,0.88,1.11,1.38s0.53,1.19,0.77,2.08l0.31,0.03l0.85-9.83l0.96,0.08l-0.14,1.64l1.15,1.09
										c0.14,0,0.24,0.01,0.34,0.02c0.68,0.06,1.27,0.31,1.76,0.74c0.09,0.08,0.17,0.17,0.26,0.28c-0.24-0.06-0.45-0.09-0.68-0.11
										c-0.64-0.06-1.25,0.05-1.8,0.31c-0.35,0.17-0.66,0.42-0.84,0.76c-0.21,0.3-0.34,0.65-0.37,1.01
										c-0.04,0.51,0.1,0.98,0.39,1.39c0.32,0.42,0.79,0.7,1.41,0.81c0.1,0.04,0.21,0.05,0.3,0.06c0.44,0.04,0.8-0.02,1.14-0.18
										c0.31-0.15,0.57-0.33,0.76-0.55c0.18-0.2,0.4-0.51,0.62-0.94c0.67,0.11,1.22,0.36,1.68,0.78c0.45,0.41,0.84,0.88,1.11,1.38
										s0.53,1.2,0.77,2.08l0.31,0.03l0.84-9.81l4.65,0.4c-0.76,0.89-1.19,1.81-1.27,2.79c-0.06,0.75,0.11,1.39,0.48,1.89
										c0.45,0.54,0.98,0.86,1.62,0.94l0.23,0.02c0.47,0.04,0.94-0.05,1.41-0.25c0.47-0.18,0.84-0.45,1.07-0.8
										c0.01,0.29,0.01,0.5,0,0.6c-0.07,0.79-0.34,1.34-0.82,1.7c-0.5,0.35-1.16,0.5-2.01,0.43c-0.98-0.08-1.76-0.48-2.32-1.17
										c-0.55-0.72-0.92-1.54-1.1-2.48c-0.19-0.95-0.23-1.85-0.16-2.73l0.03-0.3l-0.91-0.08c-0.02,0.19-0.06,0.48-0.09,0.83
										c-0.14,1.67,0.02,3.11,0.48,4.3c0.45,1.2,1.07,2.12,1.89,2.75s1.67,0.99,2.55,1.06c0.92,0.08,1.72-0.15,2.42-0.64
										c0.68-0.54,1.07-1.28,1.16-2.27c0.08-0.92-0.15-1.98-0.67-3.19c-0.47,0.27-0.94,0.46-1.38,0.63
										c-0.45,0.16-0.82,0.22-1.15,0.19c-0.25-0.02-0.43-0.1-0.58-0.25c-0.13-0.15-0.19-0.36-0.17-0.63l0.02-0.24
										c0.09-0.56,0.34-1.04,0.79-1.44c0.44-0.41,1.06-0.84,1.82-1.26c0.04,1.54,0.86,2.58,2.45,3.1
										c-0.34,0.66-0.57,1.41-0.64,2.26c-0.05,0.63-0.08,2.2-0.05,3.63c-0.97-0.05-1.73,0.1-2.3,0.47
										c-0.6,0.42-0.93,0.93-0.98,1.57c-0.05,0.59,0.13,1.14,0.56,1.63c0.42,0.5,1,0.79,1.75,0.85c3.71,0.36,3.65-2.7,3.65-2.7
										c1.44,0.55,2.46,1.78,2.95,2.66l1.3,0.11c0,0-1.35-3.33-4.58-4.12c-0.12-0.4-0.26-0.74-0.32-0.91
										c-0.19-0.63-0.69-2.52-0.07-3.52c0.33-0.48,0.79-0.8,1.39-0.97l-0.92-2.45c-0.48,0.12-0.85,0.18-1.13,0.15l-0.19-0.02
										c-0.3-0.04-0.55-0.2-0.76-0.49c-0.21-0.27-0.29-0.55-0.27-0.84c0.01-0.16,0.06-0.27,0.14-0.38l9.45,0.81l-5.3,2.57
										l-0.29,3.42c2.74,0.21,5.15,1.41,7.06,4.05l0.34,0.03l0.85-9.83l0.96,0.08l0.15-1.77L318.3,193.72z M325.14,200.97
										c-0.42-0.43-0.87-0.78-1.33-1.06c0.02-1.69-0.64-3.05-1.95-4.1l3.69,0.32L325.14,200.97z M337.96,207.77
										c-0.04,0.42-0.14,0.72-0.35,0.91c-0.2,0.17-0.44,0.25-0.7,0.23c-0.16-0.01-0.31-0.05-0.45-0.15
										c-0.12-0.08-0.19-0.19-0.2-0.31c-0.01-0.03-0.02-0.09-0.02-0.16c0.02-0.25,0.2-0.46,0.49-0.62c0.3-0.16,0.71-0.22,1.2-0.17
										h0.04L337.96,207.77z M348.15,204.88c-1.19-1.16-2.57-2.04-3.45-2.23l3.81-2.05L348.15,204.88z"/>
									<path style="fill:#FFFFFF;" d="M345.55,205.81c-0.46-0.22-0.89-0.29-1.34-0.18c-0.42,0.1-0.72,0.33-0.87,0.68
										c-0.15,0.35-0.11,0.74,0.09,1.17c0.22,0.41,0.54,0.73,1.01,0.96c0.43,0.21,0.88,0.26,1.3,0.15
										c0.43-0.12,0.73-0.34,0.87-0.7c0.15-0.35,0.11-0.74-0.1-1.15C346.34,206.33,345.99,206.02,345.55,205.81z"/>
								</g>
								<g>
									<polygon style="fill:#FFFFFF;" points="310.57,185.28 309.68,185.27 309.16,185.99 308.9,185.14 308.05,184.87 
										308.78,184.36 308.77,183.46 309.49,184 310.33,183.72 310.04,184.56 									"/>
								</g>
								<g>
									<polygon style="fill:#FFFFFF;" points="308.13,186.39 307.93,186.8 307.73,186.39 307.28,186.32 307.61,186 307.54,185.56 
										307.94,185.77 308.35,185.57 308.26,186.01 308.58,186.34 									"/>
								</g>
								<g>
									<polygon style="fill:#FFFFFF;" points="311.51,184.47 311.2,184.8 311.12,184.36 310.71,184.16 311.12,183.95 
										311.17,183.5 311.49,183.82 311.94,183.74 311.74,184.14 311.96,184.54 									"/>
								</g>
							</g>
						</g>
						<g style="opacity:0.9;">
							<g>
								<g>
									<path style="fill:#FFFFFF;" d="M659.89,148.93c-0.01,0.01,0,0.02-0.01,0.03c-0.1,0.32-0.26,0.63-0.44,0.91
										c0,0.01-0.01,0.01-0.01,0.02c-0.13,0.19-0.27,0.37-0.42,0.54c-0.23,0.27-0.5,0.51-0.79,0.73c-0.2,0.15-0.4,0.29-0.62,0.4
										c-0.76,0.41-1.61,0.65-2.43,0.62v0.01c-0.08,0.09-0.14,0.18-0.23,0.27c-0.05,0.06-0.1,0.13-0.15,0.19
										c-0.36,0.46-0.74,0.94-1.17,1.42c-0.42,0.49-0.87,0.97-1.39,1.42c-0.2,0.18-0.41,0.36-0.63,0.52
										c-2.11,1.48-4.87,2.02-7.35,1.46c-0.85-0.2-1.68-0.52-2.43-0.98c-0.39-0.24-0.76-0.51-1.11-0.82l-0.37-0.38
										c0,0,0.05-0.03,0.13-0.08s0.21-0.13,0.36-0.23c0.09-0.06,0.19-0.12,0.29-0.18c0.24-0.16,0.52-0.34,0.78-0.51
										c0.45-0.3,0.87-0.6,1.11-0.79c4.23-3.52,4.57-4.77,7.68-5.8l0.04,0.07c-3.15,1.11-4.16,4.54-7.27,7.41
										c-0.24,0.22-0.49,0.44-0.76,0.66c2.55,1.2,5.8,0.75,8.05-0.94c0.42-0.31,0.78-0.68,1.11-1.06c0.89-1.04,1.56-2.25,2.42-3.3
										c0.54-0.66,1.16-1.26,1.97-1.69c0.96-0.48,2.1-0.35,3.04-0.1c0.01-0.45-0.31-0.72-0.67-0.96
										c-0.08-0.04-0.16-0.09-0.25-0.13c-1.5-0.73-3.33-0.72-5.01-0.66l-0.39,0.02c-5.76-8.83-17.16-2.25-16.68,7.19
										c0.04,0.74,0.1,1.67,0.18,2.53c1.08-0.21,1.9-0.55,2.99-1.02l0.63,0.64c0.27,0.24,0.56,0.47,0.88,0.69
										c-0.21,0.12-0.44,0.25-0.67,0.38l0.29,4.16c0.81-0.65,1.63-1.21,2.45-1.68l1.28-0.7l2.03,2.43l-0.43,0.66
										c-0.28,0.47-0.54,1.03-0.71,1.71c-0.12,0.48-0.18,0.97-0.14,1.48c0.02,0.29,0.06,0.55,0.11,0.82
										c0.17,0.87,0.64,1.74,1.36,2.6l-1.84,0.13l-0.48-0.72c-0.35-0.48-0.63-1.11-0.85-1.89c-0.12-0.46-0.21-0.96-0.25-1.51
										c-0.03-0.4-0.04-0.81-0.01-1.25c-0.62,0.62-1.35,1.64-2.17,3.05l-2.86-1.73l-0.45-6.48c-0.23,0.07-0.76,0.22-1.03,0.28
										c0.11,2.06,0.75,10.74,0.75,10.74l-2.73,0.19c-0.01-0.13-1.07-14.49-1.11-15.13c-0.3-4.15,1.03-7.29,3.15-9.4
										c0.67-0.62,1.86-1.48,2.03-1.59c4.81-2.9,11.62-1.95,14.46,3.08c3.59-0.35,5.77,0.32,6.49,1.22
										C659.92,148.22,660,148.58,659.89,148.93z"/>
									<path style="fill:#FFFFFF;" d="M655.32,155.6l-0.14-1.98c-0.67,0.84-1.42,1.74-2.36,2.55c-0.08,0.08-0.18,0.16-0.27,0.23
										l0.46,6.6c-0.45-0.33-0.9-0.59-1.34-0.79c-0.09-0.05-0.18-0.09-0.27-0.12c-0.52-0.21-1.03-0.34-1.52-0.38
										c-0.04-0.01-0.08,0-0.12-0.01c-0.07-0.01-0.16-0.01-0.24-0.01c-0.02,0-0.03-0.01-0.05,0c-0.11,0-0.22,0.01-0.33,0.02
										c-0.17,0.01-0.35,0.03-0.51,0.07c-0.12,0.02-0.23,0.05-0.34,0.09c-0.07,0.01-0.14,0.03-0.21,0.06
										c-0.12,0.04-0.24,0.09-0.36,0.14c-0.16,0.08-0.31,0.17-0.46,0.27c-0.34,0.25-0.64,0.56-0.77,0.95
										c-0.17,0.36-0.26,0.76-0.23,1.15c0.04,0.55,0.27,1.03,0.65,1.42c0.41,0.4,0.97,0.62,1.64,0.64c0.12,0.02,0.24,0.01,0.34,0
										c0.48-0.03,0.85-0.15,1.19-0.38c0.31-0.21,0.55-0.46,0.72-0.72c0.16-0.26,0.34-0.62,0.51-1.11
										c0.73,0.01,1.37,0.17,1.93,0.55c0.56,0.37,1.05,0.8,1.43,1.29c0.38,0.5,0.77,1.19,1.18,2.1l0.34-0.02l-0.75-10.7l1.05-0.07
										l0.13,1.79l1.41,0.98c0.15-0.02,0.26-0.03,0.37-0.03c0.74-0.05,1.42,0.12,2.01,0.5c0.11,0.07,0.21,0.16,0.33,0.25
										c-0.26-0.02-0.5-0.02-0.74,0c-0.7,0.05-1.33,0.26-1.88,0.64c-0.34,0.24-0.64,0.56-0.77,0.95
										c-0.17,0.35-0.26,0.75-0.23,1.14c0.04,0.56,0.27,1.03,0.65,1.42c0.41,0.4,0.97,0.62,1.65,0.63
										c0.12,0.02,0.23,0.02,0.33,0.01c0.48-0.03,0.85-0.16,1.19-0.39c0.31-0.21,0.56-0.45,0.72-0.72
										c0.16-0.25,0.34-0.61,0.51-1.11c0.73,0.01,1.37,0.18,1.93,0.55c0.56,0.37,1.05,0.8,1.43,1.29c0.38,0.5,0.77,1.19,1.18,2.1
										l0.34-0.02l-0.75-10.67l5.06-0.36c-0.67,1.08-0.97,2.15-0.89,3.21c0.06,0.81,0.36,1.47,0.84,1.95
										c0.57,0.51,1.19,0.76,1.89,0.73l0.25-0.02c0.51-0.04,1-0.21,1.47-0.5c0.47-0.27,0.82-0.63,1.01-1.04
										c0.06,0.31,0.1,0.54,0.1,0.65c0.06,0.86-0.14,1.49-0.6,1.96c-0.47,0.46-1.16,0.73-2.08,0.8c-1.07,0.08-1.97-0.22-2.69-0.86
										c-0.72-0.68-1.25-1.49-1.59-2.47c-0.36-0.99-0.56-1.95-0.63-2.91l-0.02-0.32l-0.99,0.07c0.01,0.2,0.02,0.52,0.05,0.91
										c0.13,1.82,0.54,3.33,1.24,4.54c0.69,1.22,1.51,2.1,2.49,2.63c0.98,0.54,1.96,0.78,2.92,0.71c1.01-0.07,1.82-0.45,2.48-1.1
										c0.64-0.69,0.93-1.56,0.86-2.63c-0.07-1-0.49-2.1-1.26-3.31c-0.46,0.37-0.93,0.65-1.37,0.91c-0.46,0.24-0.85,0.38-1.2,0.4
										c-0.27,0.02-0.48-0.04-0.66-0.17c-0.16-0.13-0.27-0.36-0.29-0.65l-0.02-0.26c0-0.61,0.19-1.17,0.61-1.67
										c0.4-0.52,0.99-1.08,1.74-1.66c0.3,1.65,1.36,2.63,3.15,2.92c-0.25,0.77-0.37,1.61-0.3,2.53c0.05,0.68,0.28,2.37,0.56,3.91
										c-1.05,0.11-1.84,0.4-2.38,0.89c-0.57,0.55-0.84,1.16-0.79,1.85c0.05,0.64,0.34,1.2,0.88,1.66
										c0.54,0.47,1.21,0.67,2.03,0.62c4.04-0.23,3.46-3.51,3.46-3.51c1.64,0.35,2.94,1.5,3.61,2.36l1.41-0.1
										c0,0-2.01-3.34-5.61-3.65c-0.2-0.41-0.4-0.75-0.5-0.93c-0.31-0.65-1.16-2.59-0.67-3.76c0.27-0.57,0.71-1,1.33-1.28
										l-1.4-2.48c-0.5,0.21-0.88,0.33-1.18,0.35l-0.2,0.01c-0.33,0.01-0.62-0.13-0.9-0.4c-0.27-0.26-0.4-0.54-0.43-0.86
										c-0.01-0.17,0.02-0.3,0.08-0.43l10.28-0.72l-5.26,3.65l0.26,3.72c2.98-0.24,5.76,0.64,8.26,3.16l0.36-0.03l-0.75-10.7
										l1.04-0.07l-0.14-1.92L655.32,155.6z M663.87,162.22c-0.53-0.39-1.06-0.69-1.61-0.91c-0.27-1.82-1.2-3.16-2.78-4.07
										l4.02-0.28L663.87,162.22z M678.78,167.36c0.03,0.45-0.03,0.79-0.22,1.04c-0.18,0.22-0.43,0.34-0.72,0.36
										c-0.18,0.01-0.34,0-0.5-0.09c-0.14-0.06-0.24-0.17-0.27-0.3c-0.02-0.03-0.04-0.09-0.04-0.17
										c-0.02-0.28,0.13-0.52,0.42-0.75c0.29-0.22,0.73-0.35,1.26-0.39h0.05L678.78,167.36z M689.23,162.54
										c-1.47-1.05-3.1-1.76-4.07-1.81l3.75-2.85L689.23,162.54z"/>
									<path style="fill:#FFFFFF;" d="M686.6,163.98c-0.54-0.16-1.01-0.16-1.47,0.04c-0.43,0.18-0.72,0.48-0.82,0.88
										c-0.1,0.41,0.01,0.82,0.29,1.24c0.31,0.4,0.71,0.69,1.25,0.86c0.5,0.15,0.99,0.13,1.43-0.05c0.44-0.2,0.72-0.49,0.82-0.9
										c0.1-0.41-0.01-0.82-0.3-1.22C687.53,164.4,687.1,164.13,686.6,163.98z"/>
								</g>
								<g>
									<polygon style="fill:#FFFFFF;" points="645.6,147.85 644.63,147.98 644.2,148.85 643.78,147.97 642.82,147.83 
										643.51,147.16 643.36,146.2 644.21,146.66 645.08,146.21 644.91,147.16 									"/>
								</g>
								<g>
									<polygon style="fill:#FFFFFF;" points="643.17,149.45 643.01,149.92 642.73,149.51 642.24,149.51 642.54,149.12 
										642.39,148.65 642.86,148.82 643.26,148.53 643.24,149.02 643.64,149.31 									"/>
								</g>
								<g>
									<polygon style="fill:#FFFFFF;" points="646.46,146.82 646.19,147.23 646.03,146.76 645.56,146.62 645.96,146.33 
										645.94,145.84 646.34,146.12 646.8,145.96 646.65,146.43 646.96,146.81 									"/>
								</g>
							</g>
						</g>
						<path style="fill:#15484B;" d="M255.63,221.98c0,0,74.97-16.77,139.3,36.73l-3.18-5.45c0,0-61.7-50.07-134.63-32.84
							L255.63,221.98z"/>
					</g>
				</g>
			</g>
		</g>
	</g>
</g>
</svg>
