<svg width="15" height="22" viewBox="0 0 15 22" fill="none" xmlns="http://www.w3.org/2000/svg">
<path d="M4.63001 10.9968L13.3556 3.43577C13.6641 3.17538 13.8395 2.80974 13.8395 2.42677C13.8395 2.0438 13.6641 1.67816 13.3556 1.41777C12.6977 0.860744 11.6789 0.860744 11.0209 1.41777L1.13295 9.98577C0.835032 10.2391 0.661942 10.591 0.652843 10.962C0.643745 11.333 0.799407 11.6916 1.08461 11.9568L11.0122 20.5838C11.6705 21.1398 12.6885 21.1398 13.3468 20.5838C13.6554 20.3234 13.8307 19.9577 13.8307 19.5748C13.8307 19.1918 13.6554 18.8262 13.3468 18.5658L4.63001 10.9968Z" fill="#221E20" stroke="#E7E9E9"/>
</svg>
