<svg width="19" height="18" viewBox="0 0 19 18" fill="none" xmlns="http://www.w3.org/2000/svg">
<g clip-path="url(#clip0_318_2932)">
<g clip-path="url(#clip1_318_2932)">
<path d="M18.2344 2.8125C18.2344 3.44531 17.7316 4.02891 16.8844 4.5C15.8613 5.06602 14.3355 5.4668 12.5848 5.58633C12.4547 5.52305 12.3246 5.46328 12.1875 5.41055C10.8023 4.83047 8.96016 4.5 6.98438 4.5C6.69258 4.5 6.40781 4.50703 6.12305 4.52109L6.08437 4.5C5.23711 4.02891 4.73438 3.44531 4.73438 2.8125C4.73438 1.25859 7.75781 0 11.4844 0C15.2109 0 18.2344 1.25859 18.2344 2.8125ZM5.88398 5.66367C6.24258 5.63906 6.61172 5.625 6.98438 5.625C9.17109 5.625 11.1117 6.05742 12.3457 6.72891C13.2176 7.20352 13.7344 7.79414 13.7344 8.4375C13.7344 8.57812 13.7098 8.71523 13.6605 8.84883C13.4988 9.31289 13.0629 9.73828 12.4301 10.0969C12.4266 10.1004 12.4195 10.1004 12.416 10.1039C12.4055 10.1109 12.3949 10.1145 12.3844 10.1215C11.1539 10.8035 9.19219 11.2465 6.98438 11.2465C4.88906 11.2465 3.01523 10.8492 1.77422 10.2234C1.70742 10.1918 1.64414 10.1566 1.58086 10.1215C0.737109 9.65391 0.234375 9.07031 0.234375 8.4375C0.234375 7.21406 2.11172 6.16992 4.73438 5.78672C5.10352 5.73398 5.48672 5.6918 5.88398 5.66367ZM14.8594 8.4375C14.8594 7.66758 14.4867 7.03477 14.0121 6.56016C15.007 6.40547 15.9176 6.15938 16.691 5.83945C17.2641 5.60039 17.7984 5.30508 18.2344 4.94297V6.1875C18.2344 6.86602 17.6543 7.4918 16.6945 7.97695C16.1813 8.23711 15.5555 8.45859 14.8523 8.62734C14.8559 8.56406 14.8594 8.5043 14.8594 8.44102V8.4375ZM13.7344 11.8125C13.7344 12.4453 13.2316 13.0289 12.3844 13.5C12.3211 13.5352 12.2578 13.5668 12.191 13.602C10.9535 14.2277 9.07969 14.625 6.98438 14.625C4.77656 14.625 2.81484 14.182 1.58438 13.5C0.737109 13.0289 0.234375 12.4453 0.234375 11.8125V10.568C0.673828 10.9301 1.20469 11.2254 1.77773 11.4645C3.16641 12.0445 5.00859 12.375 6.98438 12.375C8.96016 12.375 10.8023 12.0445 12.191 11.4645C12.4652 11.352 12.7289 11.2219 12.9785 11.0813C13.193 10.9617 13.3934 10.8281 13.5832 10.6875C13.6359 10.6488 13.6852 10.6066 13.7344 10.568V10.6875V10.8879V11.8125ZM14.8594 11.8125V10.6875V9.77695C15.5273 9.6293 16.1426 9.44297 16.691 9.21445C17.2641 8.97539 17.7984 8.68008 18.2344 8.31797V9.5625C18.2344 9.93164 18.0586 10.3008 17.7105 10.6488C17.1375 11.2219 16.1285 11.693 14.8523 11.9988C14.8559 11.9391 14.8594 11.8758 14.8594 11.8125ZM6.98438 15.75C8.96016 15.75 10.8023 15.4195 12.191 14.8395C12.7641 14.6004 13.2984 14.3051 13.7344 13.943V15.1875C13.7344 16.7414 10.7109 18 6.98438 18C3.25781 18 0.234375 16.7414 0.234375 15.1875V13.943C0.673828 14.3051 1.20469 14.6004 1.77773 14.8395C3.16641 15.4195 5.00859 15.75 6.98438 15.75Z" fill="#6B7280"/>
</g>
</g>
<defs>
<clipPath id="clip0_318_2932">
<rect width="18" height="18" fill="white" transform="translate(0.234375)"/>
</clipPath>
<clipPath id="clip1_318_2932">
<path d="M0.234375 0H18.2344V18H0.234375V0Z" fill="white"/>
</clipPath>
</defs>
</svg>
